<svg width="241" height="4" viewBox="0 0 241 4" fill="none" xmlns="http://www.w3.org/2000/svg">
<path d="M240.677 2.27651C240.774 2.17888 240.774 2.02059 240.677 1.92295L239.086 0.331964C238.988 0.234333 238.83 0.234333 238.732 0.331964C238.635 0.429596 238.635 0.587887 238.732 0.685518L240.146 2.09973L238.732 3.51394C238.635 3.61158 238.635 3.76987 238.732 3.8675C238.83 3.96513 238.988 3.96513 239.086 3.8675L240.677 2.27651ZM0 2.34973C0.369531 2.34973 0.738531 2.34973 1.107 2.34973C1.47547 2.34973 1.84341 2.34973 2.21082 2.34973C2.57823 2.34973 2.94511 2.34973 3.31146 2.34973C3.67781 2.34973 4.04363 2.34973 4.40892 2.34973C4.77422 2.34973 5.13898 2.34973 5.50322 2.34973C5.86746 2.34973 6.23116 2.34973 6.59435 2.34973C6.95753 2.34973 7.32018 2.34973 7.68231 2.34973C8.04444 2.34973 8.40604 2.34973 8.76712 2.34973C9.12819 2.34973 9.48874 2.34973 9.84877 2.34973C10.2088 2.34973 10.5683 2.34973 10.9273 2.34973C11.2862 2.34973 11.6447 2.34973 12.0026 2.34973C12.3606 2.34973 12.718 2.34973 13.0748 2.34973C13.4317 2.34973 13.7881 2.34973 14.1439 2.34973C14.4998 2.34973 14.8551 2.34973 15.2099 2.34973C15.5647 2.34973 15.9189 2.34973 16.2727 2.34973C16.6264 2.34973 16.9796 2.34973 17.3324 2.34973C17.6851 2.34973 18.0373 2.34973 18.3889 2.34973C18.7406 2.34973 19.0917 2.34973 19.4424 2.34973C19.793 2.34973 20.1431 2.34973 20.4927 2.34973C20.8423 2.34973 21.1914 2.34973 21.5399 2.34973C21.8885 2.34973 22.2365 2.34973 22.584 2.34973C22.9316 2.34973 23.2786 2.34973 23.625 2.34973C23.9715 2.34973 24.3175 2.34973 24.663 2.34973C25.0084 2.34973 25.3534 2.34973 25.6978 2.34973C26.0422 2.34973 26.3861 2.34973 26.7295 2.34973C27.0729 2.34973 27.4158 2.34973 27.7582 2.34973C28.1005 2.34973 28.4424 2.34973 28.7837 2.34973C29.1251 2.34973 29.4659 2.34973 29.8062 2.34973C30.1465 2.34973 30.4863 2.34973 30.8256 2.34973C31.1649 2.34973 31.5037 2.34973 31.842 2.34973C32.1802 2.34973 32.518 2.34973 32.8553 2.34973C33.1925 2.34973 33.5292 2.34973 33.8655 2.34973C34.2017 2.34973 34.5374 2.34973 34.8726 2.34973C35.2079 2.34973 35.5426 2.34973 35.8767 2.34973C36.2109 2.34973 36.5446 2.34973 36.8778 2.34973C37.211 2.34973 37.5437 2.34973 37.8758 2.34973C38.208 2.34973 38.5396 2.34973 38.8708 2.34973C39.202 2.34973 39.5326 2.34973 39.8627 2.34973C40.1929 2.34973 40.5225 2.34973 40.8516 2.34973C41.1808 2.34973 41.5094 2.34973 41.8375 2.34973C42.1656 2.34973 42.4932 2.34973 42.8204 2.34973C43.1475 2.34973 43.4741 2.34973 43.8002 2.34973C44.1263 2.34973 44.4519 2.34973 44.777 2.34973C45.1021 2.34973 45.4267 2.34973 45.7508 2.34973C46.0749 2.34973 46.3985 2.34973 46.7216 2.34973C47.0447 2.34973 47.3673 2.34973 47.6894 2.34973C48.0115 2.34973 48.3331 2.34973 48.6542 2.34973C48.9753 2.34973 49.2959 2.34973 49.616 2.34973C49.9361 2.34973 50.2557 2.34973 50.5748 2.34973C50.8939 2.34973 51.2125 2.34973 51.5306 2.34973C51.8487 2.34973 52.1663 2.34973 52.4834 2.34973C52.8005 2.34973 53.1171 2.34973 53.4332 2.34973C53.7494 2.34973 54.065 2.34973 54.3801 2.34973C54.6952 2.34973 55.0099 2.34973 55.324 2.34973C55.6381 2.34973 55.9518 2.34973 56.2649 2.34973C56.5781 2.34973 56.8907 2.34973 57.2029 2.34973C57.5151 2.34973 57.8267 2.34973 58.1379 2.34973C58.4491 2.34973 58.7598 2.34973 59.0699 2.34973C59.3801 2.34973 59.6898 2.34973 59.999 2.34973C60.3083 2.34973 60.617 2.34973 60.9252 2.34973C61.2334 2.34973 61.5412 2.34973 61.8484 2.34973C62.1556 2.34973 62.4624 2.34973 62.7687 2.34973C63.0749 2.34973 63.3807 2.34973 63.686 2.34973C63.9913 2.34973 64.2961 2.34973 64.6004 2.34973C64.9047 2.34973 65.2085 2.34973 65.5119 2.34973C65.8152 2.34973 66.118 2.34973 66.4204 2.34973C66.7228 2.34973 67.0246 2.34973 67.326 2.34973C67.6274 2.34973 67.9283 2.34973 68.2287 2.34973C68.5292 2.34973 68.8291 2.34973 69.1285 2.34973C69.428 2.34973 69.727 2.34973 70.0254 2.34973C70.3239 2.34973 70.6219 2.34973 70.9194 2.34973C71.2169 2.34973 71.514 2.34973 71.8105 2.34973C72.1071 2.34973 72.4031 2.34973 72.6987 2.34973C72.9943 2.34973 73.2894 2.34973 73.584 2.34973C73.8786 2.34973 74.1728 2.34973 74.4664 2.34973C74.7601 2.34973 75.0533 2.34973 75.346 2.34973C75.6387 2.34973 75.9309 2.34973 76.2226 2.34973C76.5144 2.34973 76.8056 2.34973 77.0964 2.34973C77.3872 2.34973 77.6775 2.34973 77.9673 2.34973C78.2571 2.34973 78.5465 2.34973 78.8354 2.34973C79.1242 2.34973 79.4126 2.34973 79.7005 2.34973C79.9884 2.34973 80.2759 2.34973 80.5629 2.34973C80.8498 2.34973 81.1363 2.34973 81.4223 2.34973C81.7083 2.34973 81.9939 2.34973 82.2789 2.34973C82.564 2.34973 82.8486 2.34973 83.1327 2.34973C83.4168 2.34973 83.7005 2.34973 83.9836 2.34973C84.2668 2.34973 84.5495 2.34973 84.8317 2.34973C85.1139 2.34973 85.3957 2.34973 85.677 2.34973C85.9583 2.34973 86.2391 2.34973 86.5194 2.34973C86.7997 2.34973 87.0796 2.34973 87.359 2.34973C87.6384 2.34973 87.9173 2.34973 88.1958 2.34973C88.4742 2.34973 88.7522 2.34973 89.0297 2.34973C89.3072 2.34973 89.5843 2.34973 89.8609 2.34973C90.1374 2.34973 90.4136 2.34973 90.6892 2.34973C90.9648 2.34973 91.24 2.34973 91.5147 2.34973C91.7894 2.34973 92.0637 2.34973 92.3374 2.34973C92.6112 2.34973 92.8845 2.34973 93.1574 2.34973C93.4302 2.34973 93.7026 2.34973 93.9745 2.34973C94.2464 2.34973 94.5179 2.34973 94.7888 2.34973C95.0598 2.34973 95.3304 2.34973 95.6004 2.34973C95.8705 2.34973 96.1401 2.34973 96.4092 2.34973C96.6783 2.34973 96.947 2.34973 97.2152 2.34973C97.4834 2.34973 97.7511 2.34973 98.0184 2.34973C98.2857 2.34973 98.5525 2.34973 98.8189 2.34973C99.0852 2.34973 99.3511 2.34973 99.6165 2.34973C99.882 2.34973 100.147 2.34973 100.411 2.34973C100.676 2.34973 100.94 2.34973 101.204 2.34973C101.467 2.34973 101.73 2.34973 101.993 2.34973C102.256 2.34973 102.518 2.34973 102.78 2.34973C103.041 2.34973 103.303 2.34973 103.564 2.34973C103.824 2.34973 104.085 2.34973 104.345 2.34973C104.605 2.34973 104.864 2.34973 105.123 2.34973C105.382 2.34973 105.641 2.34973 105.899 2.34973C106.157 2.34973 106.415 2.34973 106.672 2.34973C106.929 2.34973 107.186 2.34973 107.442 2.34973C107.699 2.34973 107.954 2.34973 108.21 2.34973C108.465 2.34973 108.72 2.34973 108.975 2.34973C109.229 2.34973 109.483 2.34973 109.737 2.34973C109.99 2.34973 110.243 2.34973 110.496 2.34973C110.749 2.34973 111.001 2.34973 111.253 2.34973C111.505 2.34973 111.756 2.34973 112.007 2.34973C112.258 2.34973 112.508 2.34973 112.758 2.34973C113.008 2.34973 113.258 2.34973 113.507 2.34973C113.756 2.34973 114.004 2.34973 114.253 2.34973C114.501 2.34973 114.748 2.34973 114.996 2.34973C115.243 2.34973 115.49 2.34973 115.736 2.34973C115.983 2.34973 116.229 2.34973 116.474 2.34973C116.72 2.34973 116.965 2.34973 117.209 2.34973C117.454 2.34973 117.698 2.34973 117.942 2.34973C118.186 2.34973 118.429 2.34973 118.672 2.34973C118.915 2.34973 119.157 2.34973 119.399 2.34973C119.641 2.34973 119.882 2.34973 120.124 2.34973C120.365 2.34973 120.605 2.34973 120.845 2.34973C121.086 2.34973 121.325 2.34973 121.565 2.34973C121.804 2.34973 122.043 2.34973 122.281 2.34973C122.52 2.34973 122.758 2.34973 122.995 2.34973C123.233 2.34973 123.47 2.34973 123.707 2.34973C123.943 2.34973 124.179 2.34973 124.415 2.34973C124.651 2.34973 124.886 2.34973 125.121 2.34973C125.356 2.34973 125.591 2.34973 125.825 2.34973C126.059 2.34973 126.292 2.34973 126.526 2.34973C126.759 2.34973 126.991 2.34973 127.224 2.34973C127.456 2.34973 127.688 2.34973 127.919 2.34973C128.151 2.34973 128.382 2.34973 128.612 2.34973C128.843 2.34973 129.073 2.34973 129.303 2.34973C129.532 2.34973 129.762 2.34973 129.991 2.34973C130.219 2.34973 130.448 2.34973 130.676 2.34973C130.904 2.34973 131.131 2.34973 131.358 2.34973C131.585 2.34973 131.812 2.34973 132.038 2.34973C132.265 2.34973 132.49 2.34973 132.716 2.34973C132.941 2.34973 133.166 2.34973 133.391 2.34973C133.615 2.34973 133.839 2.34973 134.063 2.34973C134.287 2.34973 134.51 2.34973 134.733 2.34973C134.955 2.34973 135.178 2.34973 135.4 2.34973C135.622 2.34973 135.843 2.34973 136.064 2.34973C136.285 2.34973 136.506 2.34973 136.726 2.34973C136.947 2.34973 137.166 2.34973 137.386 2.34973C137.605 2.34973 137.824 2.34973 138.043 2.34973C138.261 2.34973 138.479 2.34973 138.697 2.34973C138.915 2.34973 139.132 2.34973 139.349 2.34973C139.566 2.34973 139.782 2.34973 139.998 2.34973C140.214 2.34973 140.43 2.34973 140.645 2.34973C140.86 2.34973 141.075 2.34973 141.289 2.34973C141.503 2.34973 141.717 2.34973 141.931 2.34973C142.144 2.34973 142.357 2.34973 142.57 2.34973C142.783 2.34973 142.995 2.34973 143.207 2.34973C143.418 2.34973 143.63 2.34973 143.841 2.34973C144.052 2.34973 144.262 2.34973 144.472 2.34973C144.682 2.34973 144.892 2.34973 145.101 2.34973C145.311 2.34973 145.52 2.34973 145.728 2.34973C145.937 2.34973 146.145 2.34973 146.352 2.34973C146.56 2.34973 146.767 2.34973 146.974 2.34973C147.181 2.34973 147.387 2.34973 147.593 2.34973C147.799 2.34973 148.004 2.34973 148.21 2.34973C148.415 2.34973 148.619 2.34973 148.824 2.34973C149.028 2.34973 149.232 2.34973 149.435 2.34973C149.639 2.34973 149.842 2.34973 150.045 2.34973C150.247 2.34973 150.45 2.34973 150.651 2.34973C150.853 2.34973 151.055 2.34973 151.256 2.34973C151.457 2.34973 151.657 2.34973 151.857 2.34973C152.058 2.34973 152.257 2.34973 152.457 2.34973C152.656 2.34973 152.855 2.34973 153.054 2.34973C153.252 2.34973 153.45 2.34973 153.648 2.34973C153.846 2.34973 154.043 2.34973 154.24 2.34973C154.437 2.34973 154.634 2.34973 154.83 2.34973C155.026 2.34973 155.222 2.34973 155.417 2.34973C155.612 2.34973 155.807 2.34973 156.002 2.34973C156.196 2.34973 156.39 2.34973 156.584 2.34973C156.778 2.34973 156.971 2.34973 157.164 2.34973C157.357 2.34973 157.549 2.34973 157.741 2.34973C157.933 2.34973 158.125 2.34973 158.316 2.34973C158.507 2.34973 158.698 2.34973 158.889 2.34973C159.079 2.34973 159.269 2.34973 159.459 2.34973C159.648 2.34973 159.838 2.34973 160.027 2.34973C160.215 2.34973 160.404 2.34973 160.592 2.34973C160.78 2.34973 160.968 2.34973 161.155 2.34973C161.342 2.34973 161.529 2.34973 161.716 2.34973C161.902 2.34973 162.088 2.34973 162.274 2.34973C162.459 2.34973 162.645 2.34973 162.83 2.34973C163.014 2.34973 163.199 2.34973 163.383 2.34973C163.567 2.34973 163.751 2.34973 163.934 2.34973C164.117 2.34973 164.3 2.34973 164.483 2.34973C164.665 2.34973 164.847 2.34973 165.029 2.34973C165.211 2.34973 165.392 2.34973 165.573 2.34973C165.754 2.34973 165.934 2.34973 166.115 2.34973C166.295 2.34973 166.474 2.34973 166.654 2.34973C166.833 2.34973 167.012 2.34973 167.191 2.34973C167.369 2.34973 167.547 2.34973 167.725 2.34973C167.903 2.34973 168.08 2.34973 168.257 2.34973C168.434 2.34973 168.611 2.34973 168.787 2.34973C168.963 2.34973 169.139 2.34973 169.315 2.34973C169.49 2.34973 169.665 2.34973 169.84 2.34973C170.015 2.34973 170.189 2.34973 170.363 2.34973C170.537 2.34973 170.71 2.34973 170.883 2.34973C171.056 2.34973 171.229 2.34973 171.401 2.34973C171.574 2.34973 171.746 2.34973 171.917 2.34973C172.089 2.34973 172.26 2.34973 172.431 2.34973C172.602 2.34973 172.772 2.34973 172.942 2.34973C173.112 2.34973 173.282 2.34973 173.451 2.34973C173.62 2.34973 173.789 2.34973 173.958 2.34973C174.126 2.34973 174.294 2.34973 174.462 2.34973C174.63 2.34973 174.797 2.34973 174.964 2.34973C175.131 2.34973 175.298 2.34973 175.464 2.34973C175.63 2.34973 175.796 2.34973 175.961 2.34973C176.127 2.34973 176.292 2.34973 176.457 2.34973C176.621 2.34973 176.786 2.34973 176.95 2.34973C177.114 2.34973 177.277 2.34973 177.44 2.34973C177.604 2.34973 177.766 2.34973 177.929 2.34973C178.091 2.34973 178.253 2.34973 178.415 2.34973C178.577 2.34973 178.738 2.34973 178.899 2.34973C179.06 2.34973 179.22 2.34973 179.38 2.34973C179.541 2.34973 179.7 2.34973 179.86 2.34973C180.019 2.34973 180.178 2.34973 180.337 2.34973C180.496 2.34973 180.654 2.34973 180.812 2.34973C180.97 2.34973 181.127 2.34973 181.284 2.34973C181.442 2.34973 181.598 2.34973 181.755 2.34973C181.911 2.34973 182.067 2.34973 182.223 2.34973C182.379 2.34973 182.534 2.34973 182.689 2.34973C182.844 2.34973 182.999 2.34973 183.153 2.34973C183.307 2.34973 183.461 2.34973 183.614 2.34973C183.768 2.34973 183.921 2.34973 184.074 2.34973C184.226 2.34973 184.379 2.34973 184.531 2.34973C184.683 2.34973 184.834 2.34973 184.985 2.34973C185.137 2.34973 185.288 2.34973 185.438 2.34973C185.589 2.34973 185.739 2.34973 185.889 2.34973C186.038 2.34973 186.188 2.34973 186.337 2.34973C186.486 2.34973 186.635 2.34973 186.783 2.34973C186.931 2.34973 187.079 2.34973 187.227 2.34973C187.375 2.34973 187.522 2.34973 187.669 2.34973C187.816 2.34973 187.962 2.34973 188.108 2.34973C188.254 2.34973 188.4 2.34973 188.546 2.34973C188.691 2.34973 188.836 2.34973 188.981 2.34973C189.126 2.34973 189.27 2.34973 189.414 2.34973C189.558 2.34973 189.701 2.34973 189.845 2.34973C189.988 2.34973 190.131 2.34973 190.273 2.34973C190.416 2.34973 190.558 2.34973 190.7 2.34973C190.842 2.34973 190.983 2.34973 191.124 2.34973C191.266 2.34973 191.406 2.34973 191.547 2.34973C191.687 2.34973 191.827 2.34973 191.967 2.34973C192.106 2.34973 192.246 2.34973 192.385 2.34973C192.524 2.34973 192.662 2.34973 192.801 2.34973C192.939 2.34973 193.077 2.34973 193.214 2.34973C193.352 2.34973 193.489 2.34973 193.626 2.34973C193.763 2.34973 193.899 2.34973 194.035 2.34973C194.172 2.34973 194.307 2.34973 194.443 2.34973C194.578 2.34973 194.713 2.34973 194.848 2.34973C194.983 2.34973 195.117 2.34973 195.251 2.34973C195.385 2.34973 195.519 2.34973 195.652 2.34973C195.786 2.34973 195.919 2.34973 196.051 2.34973C196.184 2.34973 196.316 2.34973 196.448 2.34973C196.58 2.34973 196.712 2.34973 196.843 2.34973C196.974 2.34973 197.105 2.34973 197.235 2.34973C197.366 2.34973 197.496 2.34973 197.626 2.34973C197.756 2.34973 197.885 2.34973 198.014 2.34973C198.144 2.34973 198.272 2.34973 198.401 2.34973C198.529 2.34973 198.657 2.34973 198.785 2.34973C198.913 2.34973 199.04 2.34973 199.167 2.34973C199.295 2.34973 199.421 2.34973 199.548 2.34973C199.674 2.34973 199.8 2.34973 199.926 2.34973C200.051 2.34973 200.177 2.34973 200.302 2.34973C200.427 2.34973 200.552 2.34973 200.676 2.34973C200.8 2.34973 200.924 2.34973 201.048 2.34973C201.172 2.34973 201.295 2.34973 201.418 2.34973C201.541 2.34973 201.663 2.34973 201.786 2.34973C201.908 2.34973 202.03 2.34973 202.152 2.34973C202.273 2.34973 202.394 2.34973 202.515 2.34973C202.636 2.34973 202.757 2.34973 202.877 2.34973C202.997 2.34973 203.117 2.34973 203.237 2.34973C203.357 2.34973 203.476 2.34973 203.595 2.34973C203.714 2.34973 203.832 2.34973 203.95 2.34973C204.069 2.34973 204.187 2.34973 204.304 2.34973C204.422 2.34973 204.539 2.34973 204.656 2.34973C204.773 2.34973 204.889 2.34973 205.006 2.34973C205.122 2.34973 205.238 2.34973 205.353 2.34973C205.469 2.34973 205.584 2.34973 205.699 2.34973C205.814 2.34973 205.929 2.34973 206.043 2.34973C206.157 2.34973 206.271 2.34973 206.384 2.34973C206.498 2.34973 206.611 2.34973 206.724 2.34973C206.837 2.34973 206.95 2.34973 207.062 2.34973C207.174 2.34973 207.286 2.34973 207.398 2.34973C207.509 2.34973 207.621 2.34973 207.732 2.34973C207.843 2.34973 207.953 2.34973 208.064 2.34973C208.174 2.34973 208.284 2.34973 208.393 2.34973C208.503 2.34973 208.612 2.34973 208.721 2.34973C208.83 2.34973 208.939 2.34973 209.047 2.34973C209.156 2.34973 209.264 2.34973 209.371 2.34973C209.479 2.34973 209.586 2.34973 209.693 2.34973C209.8 2.34973 209.907 2.34973 210.014 2.34973C210.12 2.34973 210.226 2.34973 210.332 2.34973C210.438 2.34973 210.543 2.34973 210.648 2.34973C210.753 2.34973 210.858 2.34973 210.962 2.34973C211.067 2.34973 211.171 2.34973 211.275 2.34973C211.379 2.34973 211.482 2.34973 211.585 2.34973C211.688 2.34973 211.791 2.34973 211.894 2.34973C211.996 2.34973 212.099 2.34973 212.2 2.34973C212.302 2.34973 212.404 2.34973 212.505 2.34973C212.606 2.34973 212.707 2.34973 212.808 2.34973C212.909 2.34973 213.009 2.34973 213.109 2.34973C213.209 2.34973 213.309 2.34973 213.408 2.34973C213.507 2.34973 213.606 2.34973 213.705 2.34973C213.804 2.34973 213.902 2.34973 214 2.34973C214.098 2.34973 214.196 2.34973 214.294 2.34973C214.391 2.34973 214.488 2.34973 214.585 2.34973C214.682 2.34973 214.779 2.34973 214.875 2.34973C214.971 2.34973 215.067 2.34973 215.162 2.34973C215.258 2.34973 215.353 2.34973 215.448 2.34973C215.543 2.34973 215.638 2.34973 215.732 2.34973C215.827 2.34973 215.921 2.34973 216.014 2.34973C216.108 2.34973 216.202 2.34973 216.295 2.34973C216.388 2.34973 216.481 2.34973 216.573 2.34973C216.666 2.34973 216.758 2.34973 216.85 2.34973C216.941 2.34973 217.033 2.34973 217.124 2.34973C217.216 2.34973 217.307 2.34973 217.397 2.34973C217.488 2.34973 217.578 2.34973 217.668 2.34973C217.758 2.34973 217.848 2.34973 217.937 2.34973C218.027 2.34973 218.116 2.34973 218.205 2.34973C218.294 2.34973 218.382 2.34973 218.47 2.34973C218.559 2.34973 218.646 2.34973 218.734 2.34973C218.822 2.34973 218.909 2.34973 218.996 2.34973C219.083 2.34973 219.17 2.34973 219.256 2.34973C219.342 2.34973 219.429 2.34973 219.514 2.34973C219.6 2.34973 219.686 2.34973 219.771 2.34973C219.856 2.34973 219.941 2.34973 220.025 2.34973C220.11 2.34973 220.194 2.34973 220.278 2.34973C220.362 2.34973 220.446 2.34973 220.529 2.34973C220.613 2.34973 220.696 2.34973 220.779 2.34973C220.861 2.34973 220.944 2.34973 221.026 2.34973C221.108 2.34973 221.19 2.34973 221.272 2.34973C221.354 2.34973 221.435 2.34973 221.516 2.34973C221.597 2.34973 221.678 2.34973 221.758 2.34973C221.838 2.34973 221.919 2.34973 221.998 2.34973C222.078 2.34973 222.158 2.34973 222.237 2.34973C222.316 2.34973 222.395 2.34973 222.474 2.34973C222.553 2.34973 222.631 2.34973 222.709 2.34973C222.787 2.34973 222.865 2.34973 222.942 2.34973C223.02 2.34973 223.097 2.34973 223.174 2.34973C223.251 2.34973 223.328 2.34973 223.404 2.34973C223.48 2.34973 223.556 2.34973 223.632 2.34973C223.708 2.34973 223.783 2.34973 223.858 2.34973C223.934 2.34973 224.008 2.34973 224.083 2.34973C224.158 2.34973 224.232 2.34973 224.306 2.34973C224.38 2.34973 224.454 2.34973 224.527 2.34973C224.601 2.34973 224.674 2.34973 224.747 2.34973C224.82 2.34973 224.892 2.34973 224.964 2.34973C225.037 2.34973 225.109 2.34973 225.181 2.34973C225.252 2.34973 225.324 2.34973 225.395 2.34973C225.466 2.34973 225.537 2.34973 225.608 2.34973C225.678 2.34973 225.748 2.34973 225.818 2.34973C225.889 2.34973 225.958 2.34973 226.028 2.34973C226.097 2.34973 226.166 2.34973 226.235 2.34973C226.304 2.34973 226.373 2.34973 226.441 2.34973C226.509 2.34973 226.578 2.34973 226.645 2.34973C226.713 2.34973 226.781 2.34973 226.848 2.34973C226.915 2.34973 226.982 2.34973 227.049 2.34973C227.115 2.34973 227.182 2.34973 227.248 2.34973C227.314 2.34973 227.38 2.34973 227.445 2.34973C227.511 2.34973 227.576 2.34973 227.641 2.34973C227.706 2.34973 227.771 2.34973 227.835 2.34973C227.9 2.34973 227.964 2.34973 228.028 2.34973C228.092 2.34973 228.155 2.34973 228.219 2.34973C228.282 2.34973 228.345 2.34973 228.408 2.34973C228.471 2.34973 228.533 2.34973 228.595 2.34973C228.658 2.34973 228.72 2.34973 228.781 2.34973C228.843 2.34973 228.904 2.34973 228.966 2.34973C229.027 2.34973 229.088 2.34973 229.148 2.34973C229.209 2.34973 229.269 2.34973 229.329 2.34973C229.389 2.34973 229.449 2.34973 229.509 2.34973C229.568 2.34973 229.628 2.34973 229.687 2.34973C229.745 2.34973 229.804 2.34973 229.863 2.34973C229.921 2.34973 229.979 2.34973 230.037 2.34973C230.095 2.34973 230.153 2.34973 230.21 2.34973C230.268 2.34973 230.325 2.34973 230.382 2.34973C230.438 2.34973 230.495 2.34973 230.551 2.34973C230.608 2.34973 230.664 2.34973 230.719 2.34973C230.775 2.34973 230.831 2.34973 230.886 2.34973C230.941 2.34973 230.996 2.34973 231.051 2.34973C231.106 2.34973 231.16 2.34973 231.214 2.34973C231.269 2.34973 231.323 2.34973 231.376 2.34973C231.43 2.34973 231.483 2.34973 231.536 2.34973C231.59 2.34973 231.642 2.34973 231.695 2.34973C231.748 2.34973 231.8 2.34973 231.852 2.34973C231.904 2.34973 231.956 2.34973 232.008 2.34973C232.059 2.34973 232.111 2.34973 232.162 2.34973C232.213 2.34973 232.264 2.34973 232.314 2.34973C232.365 2.34973 232.415 2.34973 232.465 2.34973C232.515 2.34973 232.565 2.34973 232.614 2.34973C232.664 2.34973 232.713 2.34973 232.762 2.34973C232.811 2.34973 232.86 2.34973 232.908 2.34973C232.957 2.34973 233.005 2.34973 233.053 2.34973C233.101 2.34973 233.149 2.34973 233.196 2.34973C233.244 2.34973 233.291 2.34973 233.338 2.34973C233.385 2.34973 233.432 2.34973 233.478 2.34973C233.525 2.34973 233.571 2.34973 233.617 2.34973C233.663 2.34973 233.708 2.34973 233.754 2.34973C233.799 2.34973 233.844 2.34973 233.889 2.34973C233.934 2.34973 233.979 2.34973 234.023 2.34973C234.068 2.34973 234.112 2.34973 234.156 2.34973C234.2 2.34973 234.244 2.34973 234.287 2.34973C234.331 2.34973 234.374 2.34973 234.417 2.34973C234.46 2.34973 234.502 2.34973 234.545 2.34973C234.587 2.34973 234.63 2.34973 234.671 2.34973C234.713 2.34973 234.755 2.34973 234.797 2.34973C234.838 2.34973 234.879 2.34973 234.92 2.34973C234.961 2.34973 235.002 2.34973 235.042 2.34973C235.083 2.34973 235.123 2.34973 235.163 2.34973C235.203 2.34973 235.243 2.34973 235.282 2.34973C235.322 2.34973 235.361 2.34973 235.4 2.34973C235.439 2.34973 235.478 2.34973 235.517 2.34973C235.555 2.34973 235.593 2.34973 235.631 2.34973C235.669 2.34973 235.707 2.34973 235.745 2.34973C235.782 2.34973 235.82 2.34973 235.857 2.34973C235.894 2.34973 235.931 2.34973 235.967 2.34973C236.004 2.34973 236.04 2.34973 236.076 2.34973C236.113 2.34973 236.148 2.34973 236.184 2.34973C236.22 2.34973 236.255 2.34973 236.29 2.34973C236.326 2.34973 236.361 2.34973 236.395 2.34973C236.43 2.34973 236.464 2.34973 236.499 2.34973C236.533 2.34973 236.567 2.34973 236.601 2.34973C236.634 2.34973 236.668 2.34973 236.701 2.34973C236.734 2.34973 236.768 2.34973 236.8 2.34973C236.833 2.34973 236.866 2.34973 236.898 2.34973C236.93 2.34973 236.963 2.34973 236.994 2.34973C237.026 2.34973 237.058 2.34973 237.089 2.34973C237.121 2.34973 237.152 2.34973 237.183 2.34973C237.214 2.34973 237.245 2.34973 237.275 2.34973C237.306 2.34973 237.336 2.34973 237.366 2.34973C237.396 2.34973 237.426 2.34973 237.455 2.34973C237.485 2.34973 237.514 2.34973 237.543 2.34973C237.572 2.34973 237.601 2.34973 237.63 2.34973C237.659 2.34973 237.687 2.34973 237.715 2.34973C237.744 2.34973 237.771 2.34973 237.799 2.34973C237.827 2.34973 237.855 2.34973 237.882 2.34973C237.909 2.34973 237.936 2.34973 237.963 2.34973C237.99 2.34973 238.016 2.34973 238.043 2.34973C238.069 2.34973 238.095 2.34973 238.121 2.34973C238.147 2.34973 238.173 2.34973 238.199 2.34973C238.224 2.34973 238.249 2.34973 238.274 2.34973C238.299 2.34973 238.324 2.34973 238.349 2.34973C238.374 2.34973 238.398 2.34973 238.422 2.34973C238.446 2.34973 238.47 2.34973 238.494 2.34973C238.518 2.34973 238.541 2.34973 238.564 2.34973C238.588 2.34973 238.611 2.34973 238.634 2.34973C238.656 2.34973 238.679 2.34973 238.701 2.34973C238.724 2.34973 238.746 2.34973 238.768 2.34973C238.79 2.34973 238.812 2.34973 238.833 2.34973C238.855 2.34973 238.876 2.34973 238.897 2.34973C238.918 2.34973 238.939 2.34973 238.96 2.34973C238.981 2.34973 239.001 2.34973 239.021 2.34973C239.041 2.34973 239.061 2.34973 239.081 2.34973C239.101 2.34973 239.121 2.34973 239.14 2.34973C239.159 2.34973 239.179 2.34973 239.198 2.34973C239.217 2.34973 239.235 2.34973 239.254 2.34973C239.272 2.34973 239.291 2.34973 239.309 2.34973C239.327 2.34973 239.345 2.34973 239.362 2.34973C239.38 2.34973 239.398 2.34973 239.415 2.34973C239.432 2.34973 239.449 2.34973 239.466 2.34973C239.483 2.34973 239.499 2.34973 239.516 2.34973C239.532 2.34973 239.548 2.34973 239.564 2.34973C239.58 2.34973 239.596 2.34973 239.612 2.34973C239.627 2.34973 239.643 2.34973 239.658 2.34973C239.673 2.34973 239.688 2.34973 239.703 2.34973C239.718 2.34973 239.732 2.34973 239.746 2.34973C239.761 2.34973 239.775 2.34973 239.789 2.34973C239.803 2.34973 239.817 2.34973 239.83 2.34973C239.844 2.34973 239.857 2.34973 239.87 2.34973C239.883 2.34973 239.896 2.34973 239.909 2.34973C239.921 2.34973 239.934 2.34973 239.946 2.34973C239.959 2.34973 239.971 2.34973 239.983 2.34973C239.994 2.34973 240.006 2.34973 240.018 2.34973C240.029 2.34973 240.04 2.34973 240.052 2.34973C240.063 2.34973 240.074 2.34973 240.084 2.34973C240.095 2.34973 240.105 2.34973 240.116 2.34973C240.126 2.34973 240.136 2.34973 240.146 2.34973C240.156 2.34973 240.166 2.34973 240.175 2.34973C240.185 2.34973 240.194 2.34973 240.203 2.34973C240.212 2.34973 240.221 2.34973 240.23 2.34973C240.238 2.34973 240.247 2.34973 240.255 2.34973C240.264 2.34973 240.272 2.34973 240.28 2.34973C240.288 2.34973 240.295 2.34973 240.303 2.34973C240.31 2.34973 240.318 2.34973 240.325 2.34973C240.332 2.34973 240.339 2.34973 240.346 2.34973C240.353 2.34973 240.359 2.34973 240.366 2.34973C240.372 2.34973 240.378 2.34973 240.384 2.34973C240.39 2.34973 240.396 2.34973 240.402 2.34973C240.407 2.34973 240.413 2.34973 240.418 2.34973C240.423 2.34973 240.428 2.34973 240.433 2.34973C240.438 2.34973 240.442 2.34973 240.447 2.34973C240.451 2.34973 240.456 2.34973 240.46 2.34973C240.464 2.34973 240.468 2.34973 240.472 2.34973C240.475 2.34973 240.479 2.34973 240.482 2.34973C240.485 2.34973 240.489 2.34973 240.492 2.34973C240.495 2.34973 240.497 2.34973 240.5 2.34973V1.84973C240.497 1.84973 240.495 1.84973 240.492 1.84973C240.489 1.84973 240.485 1.84973 240.482 1.84973C240.479 1.84973 240.475 1.84973 240.472 1.84973C240.468 1.84973 240.464 1.84973 240.46 1.84973C240.456 1.84973 240.451 1.84973 240.447 1.84973C240.442 1.84973 240.438 1.84973 240.433 1.84973C240.428 1.84973 240.423 1.84973 240.418 1.84973C240.413 1.84973 240.407 1.84973 240.402 1.84973C240.396 1.84973 240.39 1.84973 240.384 1.84973C240.378 1.84973 240.372 1.84973 240.366 1.84973C240.359 1.84973 240.353 1.84973 240.346 1.84973C240.339 1.84973 240.332 1.84973 240.325 1.84973C240.318 1.84973 240.31 1.84973 240.303 1.84973C240.295 1.84973 240.288 1.84973 240.28 1.84973C240.272 1.84973 240.264 1.84973 240.255 1.84973C240.247 1.84973 240.238 1.84973 240.23 1.84973C240.221 1.84973 240.212 1.84973 240.203 1.84973C240.194 1.84973 240.185 1.84973 240.175 1.84973C240.166 1.84973 240.156 1.84973 240.146 1.84973C240.136 1.84973 240.126 1.84973 240.116 1.84973C240.105 1.84973 240.095 1.84973 240.084 1.84973C240.074 1.84973 240.063 1.84973 240.052 1.84973C240.04 1.84973 240.029 1.84973 240.018 1.84973C240.006 1.84973 239.994 1.84973 239.983 1.84973C239.971 1.84973 239.959 1.84973 239.946 1.84973C239.934 1.84973 239.921 1.84973 239.909 1.84973C239.896 1.84973 239.883 1.84973 239.87 1.84973C239.857 1.84973 239.844 1.84973 239.83 1.84973C239.817 1.84973 239.803 1.84973 239.789 1.84973C239.775 1.84973 239.761 1.84973 239.746 1.84973C239.732 1.84973 239.718 1.84973 239.703 1.84973C239.688 1.84973 239.673 1.84973 239.658 1.84973C239.643 1.84973 239.627 1.84973 239.612 1.84973C239.596 1.84973 239.58 1.84973 239.564 1.84973C239.548 1.84973 239.532 1.84973 239.516 1.84973C239.499 1.84973 239.483 1.84973 239.466 1.84973C239.449 1.84973 239.432 1.84973 239.415 1.84973C239.398 1.84973 239.38 1.84973 239.362 1.84973C239.345 1.84973 239.327 1.84973 239.309 1.84973C239.291 1.84973 239.272 1.84973 239.254 1.84973C239.235 1.84973 239.217 1.84973 239.198 1.84973C239.179 1.84973 239.159 1.84973 239.14 1.84973C239.121 1.84973 239.101 1.84973 239.081 1.84973C239.061 1.84973 239.041 1.84973 239.021 1.84973C239.001 1.84973 238.981 1.84973 238.96 1.84973C238.939 1.84973 238.918 1.84973 238.897 1.84973C238.876 1.84973 238.855 1.84973 238.833 1.84973C238.812 1.84973 238.79 1.84973 238.768 1.84973C238.746 1.84973 238.724 1.84973 238.701 1.84973C238.679 1.84973 238.656 1.84973 238.634 1.84973C238.611 1.84973 238.588 1.84973 238.564 1.84973C238.541 1.84973 238.518 1.84973 238.494 1.84973C238.47 1.84973 238.446 1.84973 238.422 1.84973C238.398 1.84973 238.374 1.84973 238.349 1.84973C238.324 1.84973 238.299 1.84973 238.274 1.84973C238.249 1.84973 238.224 1.84973 238.199 1.84973C238.173 1.84973 238.147 1.84973 238.121 1.84973C238.095 1.84973 238.069 1.84973 238.043 1.84973C238.016 1.84973 237.99 1.84973 237.963 1.84973C237.936 1.84973 237.909 1.84973 237.882 1.84973C237.855 1.84973 237.827 1.84973 237.799 1.84973C237.771 1.84973 237.744 1.84973 237.715 1.84973C237.687 1.84973 237.659 1.84973 237.63 1.84973C237.601 1.84973 237.572 1.84973 237.543 1.84973C237.514 1.84973 237.485 1.84973 237.455 1.84973C237.426 1.84973 237.396 1.84973 237.366 1.84973C237.336 1.84973 237.306 1.84973 237.275 1.84973C237.245 1.84973 237.214 1.84973 237.183 1.84973C237.152 1.84973 237.121 1.84973 237.089 1.84973C237.058 1.84973 237.026 1.84973 236.994 1.84973C236.963 1.84973 236.93 1.84973 236.898 1.84973C236.866 1.84973 236.833 1.84973 236.8 1.84973C236.768 1.84973 236.734 1.84973 236.701 1.84973C236.668 1.84973 236.634 1.84973 236.601 1.84973C236.567 1.84973 236.533 1.84973 236.499 1.84973C236.464 1.84973 236.43 1.84973 236.395 1.84973C236.361 1.84973 236.326 1.84973 236.29 1.84973C236.255 1.84973 236.22 1.84973 236.184 1.84973C236.148 1.84973 236.113 1.84973 236.076 1.84973C236.04 1.84973 236.004 1.84973 235.967 1.84973C235.931 1.84973 235.894 1.84973 235.857 1.84973C235.82 1.84973 235.782 1.84973 235.745 1.84973C235.707 1.84973 235.669 1.84973 235.631 1.84973C235.593 1.84973 235.555 1.84973 235.517 1.84973C235.478 1.84973 235.439 1.84973 235.4 1.84973C235.361 1.84973 235.322 1.84973 235.282 1.84973C235.243 1.84973 235.203 1.84973 235.163 1.84973C235.123 1.84973 235.083 1.84973 235.042 1.84973C235.002 1.84973 234.961 1.84973 234.92 1.84973C234.879 1.84973 234.838 1.84973 234.797 1.84973C234.755 1.84973 234.713 1.84973 234.671 1.84973C234.63 1.84973 234.587 1.84973 234.545 1.84973C234.502 1.84973 234.46 1.84973 234.417 1.84973C234.374 1.84973 234.331 1.84973 234.287 1.84973C234.244 1.84973 234.2 1.84973 234.156 1.84973C234.112 1.84973 234.068 1.84973 234.023 1.84973C233.979 1.84973 233.934 1.84973 233.889 1.84973C233.844 1.84973 233.799 1.84973 233.754 1.84973C233.708 1.84973 233.663 1.84973 233.617 1.84973C233.571 1.84973 233.525 1.84973 233.478 1.84973C233.432 1.84973 233.385 1.84973 233.338 1.84973C233.291 1.84973 233.244 1.84973 233.196 1.84973C233.149 1.84973 233.101 1.84973 233.053 1.84973C233.005 1.84973 232.957 1.84973 232.908 1.84973C232.86 1.84973 232.811 1.84973 232.762 1.84973C232.713 1.84973 232.664 1.84973 232.614 1.84973C232.565 1.84973 232.515 1.84973 232.465 1.84973C232.415 1.84973 232.365 1.84973 232.314 1.84973C232.264 1.84973 232.213 1.84973 232.162 1.84973C232.111 1.84973 232.059 1.84973 232.008 1.84973C231.956 1.84973 231.904 1.84973 231.852 1.84973C231.8 1.84973 231.748 1.84973 231.695 1.84973C231.642 1.84973 231.59 1.84973 231.536 1.84973C231.483 1.84973 231.43 1.84973 231.376 1.84973C231.323 1.84973 231.269 1.84973 231.214 1.84973C231.16 1.84973 231.106 1.84973 231.051 1.84973C230.996 1.84973 230.941 1.84973 230.886 1.84973C230.831 1.84973 230.775 1.84973 230.719 1.84973C230.664 1.84973 230.608 1.84973 230.551 1.84973C230.495 1.84973 230.438 1.84973 230.382 1.84973C230.325 1.84973 230.268 1.84973 230.21 1.84973C230.153 1.84973 230.095 1.84973 230.037 1.84973C229.979 1.84973 229.921 1.84973 229.863 1.84973C229.804 1.84973 229.745 1.84973 229.687 1.84973C229.628 1.84973 229.568 1.84973 229.509 1.84973C229.449 1.84973 229.389 1.84973 229.329 1.84973C229.269 1.84973 229.209 1.84973 229.148 1.84973C229.088 1.84973 229.027 1.84973 228.966 1.84973C228.904 1.84973 228.843 1.84973 228.781 1.84973C228.72 1.84973 228.658 1.84973 228.595 1.84973C228.533 1.84973 228.471 1.84973 228.408 1.84973C228.345 1.84973 228.282 1.84973 228.219 1.84973C228.155 1.84973 228.092 1.84973 228.028 1.84973C227.964 1.84973 227.9 1.84973 227.835 1.84973C227.771 1.84973 227.706 1.84973 227.641 1.84973C227.576 1.84973 227.511 1.84973 227.445 1.84973C227.38 1.84973 227.314 1.84973 227.248 1.84973C227.182 1.84973 227.115 1.84973 227.049 1.84973C226.982 1.84973 226.915 1.84973 226.848 1.84973C226.781 1.84973 226.713 1.84973 226.645 1.84973C226.578 1.84973 226.509 1.84973 226.441 1.84973C226.373 1.84973 226.304 1.84973 226.235 1.84973C226.166 1.84973 226.097 1.84973 226.028 1.84973C225.958 1.84973 225.889 1.84973 225.818 1.84973C225.748 1.84973 225.678 1.84973 225.608 1.84973C225.537 1.84973 225.466 1.84973 225.395 1.84973C225.324 1.84973 225.252 1.84973 225.181 1.84973C225.109 1.84973 225.037 1.84973 224.964 1.84973C224.892 1.84973 224.82 1.84973 224.747 1.84973C224.674 1.84973 224.601 1.84973 224.527 1.84973C224.454 1.84973 224.38 1.84973 224.306 1.84973C224.232 1.84973 224.158 1.84973 224.083 1.84973C224.008 1.84973 223.934 1.84973 223.858 1.84973C223.783 1.84973 223.708 1.84973 223.632 1.84973C223.556 1.84973 223.48 1.84973 223.404 1.84973C223.328 1.84973 223.251 1.84973 223.174 1.84973C223.097 1.84973 223.02 1.84973 222.942 1.84973C222.865 1.84973 222.787 1.84973 222.709 1.84973C222.631 1.84973 222.553 1.84973 222.474 1.84973C222.395 1.84973 222.316 1.84973 222.237 1.84973C222.158 1.84973 222.078 1.84973 221.998 1.84973C221.919 1.84973 221.838 1.84973 221.758 1.84973C221.678 1.84973 221.597 1.84973 221.516 1.84973C221.435 1.84973 221.354 1.84973 221.272 1.84973C221.19 1.84973 221.108 1.84973 221.026 1.84973C220.944 1.84973 220.861 1.84973 220.779 1.84973C220.696 1.84973 220.613 1.84973 220.529 1.84973C220.446 1.84973 220.362 1.84973 220.278 1.84973C220.194 1.84973 220.11 1.84973 220.025 1.84973C219.941 1.84973 219.856 1.84973 219.771 1.84973C219.686 1.84973 219.6 1.84973 219.514 1.84973C219.429 1.84973 219.342 1.84973 219.256 1.84973C219.17 1.84973 219.083 1.84973 218.996 1.84973C218.909 1.84973 218.822 1.84973 218.734 1.84973C218.646 1.84973 218.559 1.84973 218.47 1.84973C218.382 1.84973 218.294 1.84973 218.205 1.84973C218.116 1.84973 218.027 1.84973 217.937 1.84973C217.848 1.84973 217.758 1.84973 217.668 1.84973C217.578 1.84973 217.488 1.84973 217.397 1.84973C217.307 1.84973 217.216 1.84973 217.124 1.84973C217.033 1.84973 216.941 1.84973 216.85 1.84973C216.758 1.84973 216.666 1.84973 216.573 1.84973C216.481 1.84973 216.388 1.84973 216.295 1.84973C216.202 1.84973 216.108 1.84973 216.014 1.84973C215.921 1.84973 215.827 1.84973 215.732 1.84973C215.638 1.84973 215.543 1.84973 215.448 1.84973C215.353 1.84973 215.258 1.84973 215.162 1.84973C215.067 1.84973 214.971 1.84973 214.875 1.84973C214.779 1.84973 214.682 1.84973 214.585 1.84973C214.488 1.84973 214.391 1.84973 214.294 1.84973C214.196 1.84973 214.098 1.84973 214 1.84973C213.902 1.84973 213.804 1.84973 213.705 1.84973C213.606 1.84973 213.507 1.84973 213.408 1.84973C213.309 1.84973 213.209 1.84973 213.109 1.84973C213.009 1.84973 212.909 1.84973 212.808 1.84973C212.707 1.84973 212.606 1.84973 212.505 1.84973C212.404 1.84973 212.302 1.84973 212.2 1.84973C212.099 1.84973 211.996 1.84973 211.894 1.84973C211.791 1.84973 211.688 1.84973 211.585 1.84973C211.482 1.84973 211.379 1.84973 211.275 1.84973C211.171 1.84973 211.067 1.84973 210.962 1.84973C210.858 1.84973 210.753 1.84973 210.648 1.84973C210.543 1.84973 210.438 1.84973 210.332 1.84973C210.226 1.84973 210.12 1.84973 210.014 1.84973C209.907 1.84973 209.8 1.84973 209.693 1.84973C209.586 1.84973 209.479 1.84973 209.371 1.84973C209.264 1.84973 209.156 1.84973 209.047 1.84973C208.939 1.84973 208.83 1.84973 208.721 1.84973C208.612 1.84973 208.503 1.84973 208.393 1.84973C208.284 1.84973 208.174 1.84973 208.064 1.84973C207.953 1.84973 207.843 1.84973 207.732 1.84973C207.621 1.84973 207.509 1.84973 207.398 1.84973C207.286 1.84973 207.174 1.84973 207.062 1.84973C206.95 1.84973 206.837 1.84973 206.724 1.84973C206.611 1.84973 206.498 1.84973 206.384 1.84973C206.271 1.84973 206.157 1.84973 206.043 1.84973C205.929 1.84973 205.814 1.84973 205.699 1.84973C205.584 1.84973 205.469 1.84973 205.353 1.84973C205.238 1.84973 205.122 1.84973 205.006 1.84973C204.889 1.84973 204.773 1.84973 204.656 1.84973C204.539 1.84973 204.422 1.84973 204.304 1.84973C204.187 1.84973 204.069 1.84973 203.95 1.84973C203.832 1.84973 203.714 1.84973 203.595 1.84973C203.476 1.84973 203.357 1.84973 203.237 1.84973C203.117 1.84973 202.997 1.84973 202.877 1.84973C202.757 1.84973 202.636 1.84973 202.515 1.84973C202.394 1.84973 202.273 1.84973 202.152 1.84973C202.03 1.84973 201.908 1.84973 201.786 1.84973C201.663 1.84973 201.541 1.84973 201.418 1.84973C201.295 1.84973 201.172 1.84973 201.048 1.84973C200.924 1.84973 200.8 1.84973 200.676 1.84973C200.552 1.84973 200.427 1.84973 200.302 1.84973C200.177 1.84973 200.051 1.84973 199.926 1.84973C199.8 1.84973 199.674 1.84973 199.548 1.84973C199.421 1.84973 199.295 1.84973 199.167 1.84973C199.04 1.84973 198.913 1.84973 198.785 1.84973C198.657 1.84973 198.529 1.84973 198.401 1.84973C198.272 1.84973 198.144 1.84973 198.014 1.84973C197.885 1.84973 197.756 1.84973 197.626 1.84973C197.496 1.84973 197.366 1.84973 197.235 1.84973C197.105 1.84973 196.974 1.84973 196.843 1.84973C196.712 1.84973 196.58 1.84973 196.448 1.84973C196.316 1.84973 196.184 1.84973 196.051 1.84973C195.919 1.84973 195.786 1.84973 195.652 1.84973C195.519 1.84973 195.385 1.84973 195.251 1.84973C195.117 1.84973 194.983 1.84973 194.848 1.84973C194.713 1.84973 194.578 1.84973 194.443 1.84973C194.307 1.84973 194.172 1.84973 194.035 1.84973C193.899 1.84973 193.763 1.84973 193.626 1.84973C193.489 1.84973 193.352 1.84973 193.214 1.84973C193.077 1.84973 192.939 1.84973 192.801 1.84973C192.662 1.84973 192.524 1.84973 192.385 1.84973C192.246 1.84973 192.106 1.84973 191.967 1.84973C191.827 1.84973 191.687 1.84973 191.547 1.84973C191.406 1.84973 191.266 1.84973 191.124 1.84973C190.983 1.84973 190.842 1.84973 190.7 1.84973C190.558 1.84973 190.416 1.84973 190.273 1.84973C190.131 1.84973 189.988 1.84973 189.845 1.84973C189.701 1.84973 189.558 1.84973 189.414 1.84973C189.27 1.84973 189.126 1.84973 188.981 1.84973C188.836 1.84973 188.691 1.84973 188.546 1.84973C188.4 1.84973 188.254 1.84973 188.108 1.84973C187.962 1.84973 187.816 1.84973 187.669 1.84973C187.522 1.84973 187.375 1.84973 187.227 1.84973C187.079 1.84973 186.931 1.84973 186.783 1.84973C186.635 1.84973 186.486 1.84973 186.337 1.84973C186.188 1.84973 186.038 1.84973 185.889 1.84973C185.739 1.84973 185.589 1.84973 185.438 1.84973C185.288 1.84973 185.137 1.84973 184.985 1.84973C184.834 1.84973 184.683 1.84973 184.531 1.84973C184.379 1.84973 184.226 1.84973 184.074 1.84973C183.921 1.84973 183.768 1.84973 183.614 1.84973C183.461 1.84973 183.307 1.84973 183.153 1.84973C182.999 1.84973 182.844 1.84973 182.689 1.84973C182.534 1.84973 182.379 1.84973 182.223 1.84973C182.067 1.84973 181.911 1.84973 181.755 1.84973C181.598 1.84973 181.442 1.84973 181.284 1.84973C181.127 1.84973 180.97 1.84973 180.812 1.84973C180.654 1.84973 180.496 1.84973 180.337 1.84973C180.178 1.84973 180.019 1.84973 179.86 1.84973C179.7 1.84973 179.541 1.84973 179.38 1.84973C179.22 1.84973 179.06 1.84973 178.899 1.84973C178.738 1.84973 178.577 1.84973 178.415 1.84973C178.253 1.84973 178.091 1.84973 177.929 1.84973C177.766 1.84973 177.604 1.84973 177.44 1.84973C177.277 1.84973 177.114 1.84973 176.95 1.84973C176.786 1.84973 176.621 1.84973 176.457 1.84973C176.292 1.84973 176.127 1.84973 175.961 1.84973C175.796 1.84973 175.63 1.84973 175.464 1.84973C175.298 1.84973 175.131 1.84973 174.964 1.84973C174.797 1.84973 174.63 1.84973 174.462 1.84973C174.294 1.84973 174.126 1.84973 173.958 1.84973C173.789 1.84973 173.62 1.84973 173.451 1.84973C173.282 1.84973 173.112 1.84973 172.942 1.84973C172.772 1.84973 172.602 1.84973 172.431 1.84973C172.26 1.84973 172.089 1.84973 171.917 1.84973C171.746 1.84973 171.574 1.84973 171.401 1.84973C171.229 1.84973 171.056 1.84973 170.883 1.84973C170.71 1.84973 170.537 1.84973 170.363 1.84973C170.189 1.84973 170.015 1.84973 169.84 1.84973C169.665 1.84973 169.49 1.84973 169.315 1.84973C169.139 1.84973 168.963 1.84973 168.787 1.84973C168.611 1.84973 168.434 1.84973 168.257 1.84973C168.08 1.84973 167.903 1.84973 167.725 1.84973C167.547 1.84973 167.369 1.84973 167.191 1.84973C167.012 1.84973 166.833 1.84973 166.654 1.84973C166.474 1.84973 166.295 1.84973 166.115 1.84973C165.934 1.84973 165.754 1.84973 165.573 1.84973C165.392 1.84973 165.211 1.84973 165.029 1.84973C164.847 1.84973 164.665 1.84973 164.483 1.84973C164.3 1.84973 164.117 1.84973 163.934 1.84973C163.751 1.84973 163.567 1.84973 163.383 1.84973C163.199 1.84973 163.014 1.84973 162.83 1.84973C162.645 1.84973 162.459 1.84973 162.274 1.84973C162.088 1.84973 161.902 1.84973 161.716 1.84973C161.529 1.84973 161.342 1.84973 161.155 1.84973C160.968 1.84973 160.78 1.84973 160.592 1.84973C160.404 1.84973 160.215 1.84973 160.027 1.84973C159.838 1.84973 159.648 1.84973 159.459 1.84973C159.269 1.84973 159.079 1.84973 158.889 1.84973C158.698 1.84973 158.507 1.84973 158.316 1.84973C158.125 1.84973 157.933 1.84973 157.741 1.84973C157.549 1.84973 157.357 1.84973 157.164 1.84973C156.971 1.84973 156.778 1.84973 156.584 1.84973C156.39 1.84973 156.196 1.84973 156.002 1.84973C155.807 1.84973 155.612 1.84973 155.417 1.84973C155.222 1.84973 155.026 1.84973 154.83 1.84973C154.634 1.84973 154.437 1.84973 154.24 1.84973C154.043 1.84973 153.846 1.84973 153.648 1.84973C153.45 1.84973 153.252 1.84973 153.054 1.84973C152.855 1.84973 152.656 1.84973 152.457 1.84973C152.257 1.84973 152.058 1.84973 151.857 1.84973C151.657 1.84973 151.457 1.84973 151.256 1.84973C151.055 1.84973 150.853 1.84973 150.651 1.84973C150.45 1.84973 150.247 1.84973 150.045 1.84973C149.842 1.84973 149.639 1.84973 149.435 1.84973C149.232 1.84973 149.028 1.84973 148.824 1.84973C148.619 1.84973 148.415 1.84973 148.21 1.84973C148.004 1.84973 147.799 1.84973 147.593 1.84973C147.387 1.84973 147.181 1.84973 146.974 1.84973C146.767 1.84973 146.56 1.84973 146.352 1.84973C146.145 1.84973 145.937 1.84973 145.728 1.84973C145.52 1.84973 145.311 1.84973 145.101 1.84973C144.892 1.84973 144.682 1.84973 144.472 1.84973C144.262 1.84973 144.052 1.84973 143.841 1.84973C143.63 1.84973 143.418 1.84973 143.207 1.84973C142.995 1.84973 142.783 1.84973 142.57 1.84973C142.357 1.84973 142.144 1.84973 141.931 1.84973C141.717 1.84973 141.503 1.84973 141.289 1.84973C141.075 1.84973 140.86 1.84973 140.645 1.84973C140.43 1.84973 140.214 1.84973 139.998 1.84973C139.782 1.84973 139.566 1.84973 139.349 1.84973C139.132 1.84973 138.915 1.84973 138.697 1.84973C138.479 1.84973 138.261 1.84973 138.043 1.84973C137.824 1.84973 137.605 1.84973 137.386 1.84973C137.166 1.84973 136.947 1.84973 136.726 1.84973C136.506 1.84973 136.285 1.84973 136.064 1.84973C135.843 1.84973 135.622 1.84973 135.4 1.84973C135.178 1.84973 134.955 1.84973 134.733 1.84973C134.51 1.84973 134.287 1.84973 134.063 1.84973C133.839 1.84973 133.615 1.84973 133.391 1.84973C133.166 1.84973 132.941 1.84973 132.716 1.84973C132.49 1.84973 132.265 1.84973 132.038 1.84973C131.812 1.84973 131.585 1.84973 131.358 1.84973C131.131 1.84973 130.904 1.84973 130.676 1.84973C130.448 1.84973 130.219 1.84973 129.991 1.84973C129.762 1.84973 129.532 1.84973 129.303 1.84973C129.073 1.84973 128.843 1.84973 128.612 1.84973C128.382 1.84973 128.151 1.84973 127.919 1.84973C127.688 1.84973 127.456 1.84973 127.224 1.84973C126.991 1.84973 126.759 1.84973 126.526 1.84973C126.292 1.84973 126.059 1.84973 125.825 1.84973C125.591 1.84973 125.356 1.84973 125.121 1.84973C124.886 1.84973 124.651 1.84973 124.415 1.84973C124.179 1.84973 123.943 1.84973 123.707 1.84973C123.47 1.84973 123.233 1.84973 122.995 1.84973C122.758 1.84973 122.52 1.84973 122.281 1.84973C122.043 1.84973 121.804 1.84973 121.565 1.84973C121.325 1.84973 121.086 1.84973 120.845 1.84973C120.605 1.84973 120.365 1.84973 120.124 1.84973C119.882 1.84973 119.641 1.84973 119.399 1.84973C119.157 1.84973 118.915 1.84973 118.672 1.84973C118.429 1.84973 118.186 1.84973 117.942 1.84973C117.698 1.84973 117.454 1.84973 117.209 1.84973C116.965 1.84973 116.72 1.84973 116.474 1.84973C116.229 1.84973 115.983 1.84973 115.736 1.84973C115.49 1.84973 115.243 1.84973 114.996 1.84973C114.748 1.84973 114.501 1.84973 114.253 1.84973C114.004 1.84973 113.756 1.84973 113.507 1.84973C113.258 1.84973 113.008 1.84973 112.758 1.84973C112.508 1.84973 112.258 1.84973 112.007 1.84973C111.756 1.84973 111.505 1.84973 111.253 1.84973C111.001 1.84973 110.749 1.84973 110.496 1.84973C110.243 1.84973 109.99 1.84973 109.737 1.84973C109.483 1.84973 109.229 1.84973 108.975 1.84973C108.72 1.84973 108.465 1.84973 108.21 1.84973C107.954 1.84973 107.699 1.84973 107.442 1.84973C107.186 1.84973 106.929 1.84973 106.672 1.84973C106.415 1.84973 106.157 1.84973 105.899 1.84973C105.641 1.84973 105.382 1.84973 105.123 1.84973C104.864 1.84973 104.605 1.84973 104.345 1.84973C104.085 1.84973 103.824 1.84973 103.564 1.84973C103.303 1.84973 103.041 1.84973 102.78 1.84973C102.518 1.84973 102.256 1.84973 101.993 1.84973C101.73 1.84973 101.467 1.84973 101.204 1.84973C100.94 1.84973 100.676 1.84973 100.411 1.84973C100.147 1.84973 99.882 1.84973 99.6165 1.84973C99.3511 1.84973 99.0852 1.84973 98.8189 1.84973C98.5525 1.84973 98.2857 1.84973 98.0184 1.84973C97.7511 1.84973 97.4834 1.84973 97.2152 1.84973C96.947 1.84973 96.6783 1.84973 96.4092 1.84973C96.1401 1.84973 95.8705 1.84973 95.6004 1.84973C95.3304 1.84973 95.0598 1.84973 94.7888 1.84973C94.5179 1.84973 94.2464 1.84973 93.9745 1.84973C93.7026 1.84973 93.4302 1.84973 93.1574 1.84973C92.8845 1.84973 92.6112 1.84973 92.3374 1.84973C92.0637 1.84973 91.7894 1.84973 91.5147 1.84973C91.24 1.84973 90.9648 1.84973 90.6892 1.84973C90.4136 1.84973 90.1374 1.84973 89.8609 1.84973C89.5843 1.84973 89.3072 1.84973 89.0297 1.84973C88.7522 1.84973 88.4742 1.84973 88.1958 1.84973C87.9173 1.84973 87.6384 1.84973 87.359 1.84973C87.0796 1.84973 86.7997 1.84973 86.5194 1.84973C86.2391 1.84973 85.9583 1.84973 85.677 1.84973C85.3957 1.84973 85.1139 1.84973 84.8317 1.84973C84.5495 1.84973 84.2668 1.84973 83.9836 1.84973C83.7005 1.84973 83.4168 1.84973 83.1327 1.84973C82.8486 1.84973 82.564 1.84973 82.2789 1.84973C81.9939 1.84973 81.7083 1.84973 81.4223 1.84973C81.1363 1.84973 80.8498 1.84973 80.5629 1.84973C80.2759 1.84973 79.9884 1.84973 79.7005 1.84973C79.4126 1.84973 79.1242 1.84973 78.8354 1.84973C78.5465 1.84973 78.2571 1.84973 77.9673 1.84973C77.6775 1.84973 77.3872 1.84973 77.0964 1.84973C76.8056 1.84973 76.5144 1.84973 76.2226 1.84973C75.9309 1.84973 75.6387 1.84973 75.346 1.84973C75.0533 1.84973 74.7601 1.84973 74.4664 1.84973C74.1728 1.84973 73.8786 1.84973 73.584 1.84973C73.2894 1.84973 72.9943 1.84973 72.6987 1.84973C72.4031 1.84973 72.1071 1.84973 71.8105 1.84973C71.514 1.84973 71.2169 1.84973 70.9194 1.84973C70.6219 1.84973 70.3239 1.84973 70.0254 1.84973C69.727 1.84973 69.428 1.84973 69.1285 1.84973C68.8291 1.84973 68.5292 1.84973 68.2287 1.84973C67.9283 1.84973 67.6274 1.84973 67.326 1.84973C67.0246 1.84973 66.7228 1.84973 66.4204 1.84973C66.118 1.84973 65.8152 1.84973 65.5119 1.84973C65.2085 1.84973 64.9047 1.84973 64.6004 1.84973C64.2961 1.84973 63.9913 1.84973 63.686 1.84973C63.3807 1.84973 63.0749 1.84973 62.7687 1.84973C62.4624 1.84973 62.1556 1.84973 61.8484 1.84973C61.5412 1.84973 61.2334 1.84973 60.9252 1.84973C60.617 1.84973 60.3083 1.84973 59.999 1.84973C59.6898 1.84973 59.3801 1.84973 59.0699 1.84973C58.7598 1.84973 58.4491 1.84973 58.1379 1.84973C57.8267 1.84973 57.5151 1.84973 57.2029 1.84973C56.8907 1.84973 56.5781 1.84973 56.2649 1.84973C55.9518 1.84973 55.6381 1.84973 55.324 1.84973C55.0099 1.84973 54.6952 1.84973 54.3801 1.84973C54.065 1.84973 53.7494 1.84973 53.4332 1.84973C53.1171 1.84973 52.8005 1.84973 52.4834 1.84973C52.1663 1.84973 51.8487 1.84973 51.5306 1.84973C51.2125 1.84973 50.8939 1.84973 50.5748 1.84973C50.2557 1.84973 49.9361 1.84973 49.616 1.84973C49.2959 1.84973 48.9753 1.84973 48.6542 1.84973C48.3331 1.84973 48.0115 1.84973 47.6894 1.84973C47.3673 1.84973 47.0447 1.84973 46.7216 1.84973C46.3985 1.84973 46.0749 1.84973 45.7508 1.84973C45.4267 1.84973 45.1021 1.84973 44.777 1.84973C44.4519 1.84973 44.1263 1.84973 43.8002 1.84973C43.4741 1.84973 43.1475 1.84973 42.8204 1.84973C42.4932 1.84973 42.1656 1.84973 41.8375 1.84973C41.5094 1.84973 41.1808 1.84973 40.8516 1.84973C40.5225 1.84973 40.1929 1.84973 39.8627 1.84973C39.5326 1.84973 39.202 1.84973 38.8708 1.84973C38.5396 1.84973 38.208 1.84973 37.8758 1.84973C37.5437 1.84973 37.211 1.84973 36.8778 1.84973C36.5446 1.84973 36.2109 1.84973 35.8767 1.84973C35.5426 1.84973 35.2079 1.84973 34.8726 1.84973C34.5374 1.84973 34.2017 1.84973 33.8655 1.84973C33.5292 1.84973 33.1925 1.84973 32.8553 1.84973C32.518 1.84973 32.1802 1.84973 31.842 1.84973C31.5037 1.84973 31.1649 1.84973 30.8256 1.84973C30.4863 1.84973 30.1465 1.84973 29.8062 1.84973C29.4659 1.84973 29.1251 1.84973 28.7837 1.84973C28.4424 1.84973 28.1005 1.84973 27.7582 1.84973C27.4158 1.84973 27.0729 1.84973 26.7295 1.84973C26.3861 1.84973 26.0422 1.84973 25.6978 1.84973C25.3534 1.84973 25.0084 1.84973 24.663 1.84973C24.3175 1.84973 23.9715 1.84973 23.625 1.84973C23.2786 1.84973 22.9316 1.84973 22.584 1.84973C22.2365 1.84973 21.8885 1.84973 21.5399 1.84973C21.1914 1.84973 20.8423 1.84973 20.4927 1.84973C20.1431 1.84973 19.793 1.84973 19.4424 1.84973C19.0917 1.84973 18.7406 1.84973 18.3889 1.84973C18.0373 1.84973 17.6851 1.84973 17.3324 1.84973C16.9796 1.84973 16.6264 1.84973 16.2727 1.84973C15.9189 1.84973 15.5647 1.84973 15.2099 1.84973C14.8551 1.84973 14.4998 1.84973 14.1439 1.84973C13.7881 1.84973 13.4317 1.84973 13.0748 1.84973C12.718 1.84973 12.3606 1.84973 12.0026 1.84973C11.6447 1.84973 11.2862 1.84973 10.9273 1.84973C10.5683 1.84973 10.2088 1.84973 9.84877 1.84973C9.48874 1.84973 9.12819 1.84973 8.76712 1.84973C8.40604 1.84973 8.04444 1.84973 7.68231 1.84973C7.32018 1.84973 6.95753 1.84973 6.59435 1.84973C6.23116 1.84973 5.86746 1.84973 5.50322 1.84973C5.13898 1.84973 4.77422 1.84973 4.40892 1.84973C4.04363 1.84973 3.67781 1.84973 3.31146 1.84973C2.94511 1.84973 2.57823 1.84973 2.21082 1.84973C1.84341 1.84973 1.47547 1.84973 1.107 1.84973C0.738531 1.84973 0.369531 1.84973 0 1.84973V2.34973Z" fill="black"/>
</svg>
