<svg width="145" height="6" viewBox="0 0 145 6" fill="none" xmlns="http://www.w3.org/2000/svg">
<path d="M0.333333 3C0.333333 4.47276 1.52724 5.66667 3 5.66667C4.47276 5.66667 5.66667 4.47276 5.66667 3C5.66667 1.52724 4.47276 0.333333 3 0.333333C1.52724 0.333333 0.333333 1.52724 0.333333 3ZM139.333 3C139.333 4.47276 140.527 5.66667 142 5.66667C143.473 5.66667 144.667 4.47276 144.667 3C144.667 1.52724 143.473 0.333333 142 0.333333C140.527 0.333333 139.333 1.52724 139.333 3ZM3 3.5H142V2.5H3V3.5Z" fill="#D2C0BA"/>
</svg>
