<svg width="299" height="91" viewBox="0 0 299 91" fill="none" xmlns="http://www.w3.org/2000/svg">
<path d="M12.992 24.248V53.56C12.992 54.6267 13.0987 55.4373 13.312 55.992C13.5253 56.5467 13.9307 56.9093 14.528 57.08C15.1253 57.2507 16 57.336 17.152 57.336H20.992C24.0213 57.336 26.5813 56.4827 28.672 54.776C30.7627 53.0693 32.1493 50.808 32.832 47.992C32.8747 47.864 33.0027 47.8213 33.216 47.864C33.4293 47.9067 33.536 47.992 33.536 48.12C33.408 49.4427 33.28 51.0427 33.152 52.92C33.024 54.7547 32.96 56.4613 32.96 58.04C32.96 58.68 32.64 59 32 59H2.048C1.96267 59 1.92 58.872 1.92 58.616C1.92 58.36 1.96267 58.232 2.048 58.232C3.41333 58.232 4.43733 58.1253 5.12 57.912C5.84533 57.6987 6.31467 57.272 6.528 56.632C6.784 55.992 6.912 55.0533 6.912 53.816V24.184C6.912 22.9467 6.784 22.0293 6.528 21.432C6.31467 20.792 5.84533 20.3653 5.12 20.152C4.43733 19.896 3.41333 19.768 2.048 19.768C1.96267 19.768 1.92 19.64 1.92 19.384C1.92 19.128 1.96267 19 2.048 19C3.072 19 4.26667 19.0427 5.632 19.128C6.99733 19.1707 8.42667 19.192 9.92 19.192C11.4987 19.192 12.9493 19.1707 14.272 19.128C15.6373 19.0427 16.832 19 17.856 19C17.984 19 18.048 19.128 18.048 19.384C18.048 19.64 17.984 19.768 17.856 19.768C16.4907 19.768 15.4453 19.896 14.72 20.152C14.0373 20.3653 13.568 20.792 13.312 21.432C13.0987 22.072 12.992 23.0107 12.992 24.248ZM49.409 59.768C46.6783 59.768 44.3743 59.192 42.497 58.04C40.6197 56.888 39.1903 55.3733 38.209 53.496C37.2277 51.576 36.737 49.5493 36.737 47.416C36.737 44.8987 37.3557 42.616 38.593 40.568C39.873 38.4773 41.5797 36.8133 43.713 35.576C45.889 34.3387 48.3423 33.72 51.073 33.72C53.5903 33.72 55.5317 34.296 56.897 35.448C58.2623 36.5573 58.945 38.0933 58.945 40.056C58.945 40.5253 58.9023 40.9307 58.817 41.272C58.7317 41.6133 58.5397 41.784 58.241 41.784H52.929C53.057 39.736 52.7797 38.0933 52.097 36.856C51.4143 35.6187 50.305 35 48.769 35C46.849 35 45.313 35.896 44.161 37.688C43.009 39.4373 42.433 41.8053 42.433 44.792C42.433 47.224 42.817 49.3573 43.585 51.192C44.3957 52.984 45.5263 54.392 46.977 55.416C48.4703 56.44 50.241 56.952 52.289 56.952C53.3557 56.952 54.465 56.8027 55.617 56.504C56.769 56.1627 57.8357 55.672 58.817 55.032C58.9023 54.9467 59.009 54.9893 59.137 55.16C59.3077 55.3307 59.3503 55.48 59.265 55.608C57.729 57.1013 56.1503 58.168 54.529 58.808C52.9077 59.448 51.201 59.768 49.409 59.768ZM40.577 41.912L40.513 40.824L54.721 40.504V41.784L40.577 41.912ZM90.013 53.816C90.013 55.0533 90.1197 55.992 90.333 56.632C90.589 57.272 91.0583 57.6987 91.741 57.912C92.4237 58.1253 93.469 58.232 94.877 58.232C95.005 58.232 95.069 58.36 95.069 58.616C95.069 58.872 95.005 59 94.877 59C93.8103 59 92.6157 58.9787 91.293 58.936C89.9703 58.8933 88.4983 58.872 86.877 58.872C85.3837 58.872 83.9543 58.8933 82.589 58.936C81.2237 58.9787 80.0077 59 78.941 59C78.813 59 78.749 58.872 78.749 58.616C78.749 58.36 78.813 58.232 78.941 58.232C80.3063 58.232 81.3517 58.1253 82.077 57.912C82.8023 57.6987 83.2717 57.272 83.485 56.632C83.741 55.992 83.869 55.0533 83.869 53.816V24.184C83.869 22.9467 83.741 22.0293 83.485 21.432C83.2717 20.792 82.8023 20.3653 82.077 20.152C81.3517 19.896 80.3063 19.768 78.941 19.768C78.813 19.768 78.749 19.64 78.749 19.384C78.749 19.128 78.813 19 78.941 19C80.0077 19 81.2237 19.0427 82.589 19.128C83.9543 19.1707 85.3837 19.192 86.877 19.192C88.4983 19.192 89.9703 19.1707 91.293 19.128C92.6583 19.0427 93.853 19 94.877 19C95.005 19 95.069 19.128 95.069 19.384C95.069 19.64 95.005 19.768 94.877 19.768C93.5117 19.768 92.4663 19.896 91.741 20.152C91.0583 20.408 90.589 20.856 90.333 21.496C90.1197 22.136 90.013 23.0747 90.013 24.312V53.816ZM117.653 59C117.525 59 117.461 58.872 117.461 58.616C117.461 58.36 117.525 58.232 117.653 58.232C119.103 58.232 120.063 57.9333 120.533 57.336C121.002 56.7387 121.237 55.5653 121.237 53.816V44.216C121.237 41.8267 120.789 40.0773 119.893 38.968C119.039 37.816 117.674 37.24 115.797 37.24C114.431 37.24 113.023 37.624 111.573 38.392C110.165 39.1173 108.991 40.1413 108.053 41.464L107.733 40.696C109.397 38.4347 111.146 36.6853 112.981 35.448C114.858 34.168 116.863 33.528 118.997 33.528C121.386 33.528 123.221 34.2533 124.501 35.704C125.781 37.112 126.421 39.032 126.421 41.464V53.816C126.421 55.5653 126.655 56.7387 127.125 57.336C127.637 57.9333 128.618 58.232 130.069 58.232C130.197 58.232 130.261 58.36 130.261 58.616C130.261 58.872 130.197 59 130.069 59C129.258 59 128.319 58.9787 127.253 58.936C126.186 58.8933 125.055 58.872 123.861 58.872C122.709 58.872 121.578 58.8933 120.469 58.936C119.402 58.9787 118.463 59 117.653 59ZM100.437 59C100.309 59 100.245 58.872 100.245 58.616C100.245 58.36 100.309 58.232 100.437 58.232C101.887 58.232 102.847 57.9333 103.317 57.336C103.786 56.7387 104.021 55.5653 104.021 53.816V41.592C104.021 40.2267 103.871 39.224 103.573 38.584C103.274 37.944 102.741 37.624 101.973 37.624C101.589 37.624 101.119 37.7093 100.565 37.88C100.01 38.0507 99.4125 38.2853 98.7725 38.584C98.6018 38.6267 98.4525 38.5413 98.3245 38.328C98.2392 38.072 98.2605 37.9227 98.3885 37.88L106.773 33.784C106.986 33.6987 107.135 33.656 107.22 33.656C107.647 33.656 108.074 34.1467 108.501 35.128C108.97 36.1093 109.205 37.5387 109.205 39.416V53.816C109.205 55.5653 109.439 56.7387 109.909 57.336C110.421 57.9333 111.402 58.232 112.853 58.232C112.981 58.232 113.045 58.36 113.045 58.616C113.045 58.872 112.981 59 112.853 59C112.042 59 111.103 58.9787 110.037 58.936C108.97 58.8933 107.839 58.872 106.645 58.872C105.493 58.872 104.362 58.8933 103.253 58.936C102.186 58.9787 101.247 59 100.437 59ZM159.857 34.296C159.942 34.296 159.985 34.424 159.985 34.68C159.985 34.936 159.942 35.064 159.857 35.064C158.662 35.064 157.617 35.4907 156.721 36.344C155.867 37.1973 155.035 38.5627 154.225 40.44L146.289 59C146.246 59.1707 146.033 59.256 145.649 59.256C145.265 59.256 145.009 59.1707 144.881 59L135.409 39.608C134.47 37.6453 133.681 36.408 133.041 35.896C132.401 35.3413 131.632 35.064 130.736 35.064C130.608 35.064 130.544 34.936 130.544 34.68C130.544 34.424 130.608 34.296 130.736 34.296C131.419 34.296 132.187 34.3173 133.041 34.36C133.894 34.4027 134.982 34.424 136.305 34.424C137.969 34.424 139.377 34.4027 140.529 34.36C141.723 34.3173 142.833 34.296 143.857 34.296C143.985 34.296 144.049 34.424 144.049 34.68C144.049 34.936 143.985 35.064 143.857 35.064C142.534 35.064 141.489 35.2347 140.72 35.576C139.995 35.9173 139.889 36.5787 140.401 37.56L148.208 53.048L145.457 57.656L152.625 40.312C153.307 38.6053 153.286 37.304 152.561 36.408C151.835 35.512 150.534 35.064 148.657 35.064C148.571 35.064 148.529 34.936 148.529 34.68C148.529 34.424 148.571 34.296 148.657 34.296C149.681 34.296 150.641 34.3173 151.537 34.36C152.475 34.4027 153.67 34.424 155.121 34.424C156.102 34.424 156.913 34.4027 157.553 34.36C158.193 34.3173 158.961 34.296 159.857 34.296ZM162.191 59C162.063 59 161.999 58.872 161.999 58.616C161.999 58.36 162.063 58.232 162.191 58.232C163.642 58.232 164.602 57.9333 165.071 57.336C165.583 56.7387 165.839 55.5653 165.839 53.816V42.168C165.839 40.7173 165.69 39.672 165.391 39.032C165.092 38.3493 164.58 38.008 163.855 38.008C163.514 38.008 163.13 38.072 162.703 38.2C162.276 38.328 161.807 38.52 161.295 38.776C161.124 38.8187 160.975 38.712 160.847 38.456C160.762 38.2 160.783 38.0507 160.911 38.008L170.127 33.72C170.212 33.6773 170.276 33.656 170.319 33.656C170.49 33.656 170.66 33.7627 170.831 33.976C171.044 34.1467 171.151 34.296 171.151 34.424C171.151 34.8933 171.13 35.7467 171.087 36.984C171.044 38.2213 171.023 39.928 171.023 42.104V53.816C171.023 55.5653 171.258 56.7387 171.727 57.336C172.239 57.9333 173.22 58.232 174.671 58.232C174.799 58.232 174.863 58.36 174.863 58.616C174.863 58.872 174.799 59 174.671 59C173.818 59 172.858 58.9787 171.791 58.936C170.724 58.8933 169.594 58.872 168.399 58.872C167.247 58.872 166.116 58.8933 165.007 58.936C163.94 58.9787 163.002 59 162.191 59ZM168.079 26.936C166.97 26.936 166.095 26.6373 165.455 26.04C164.858 25.4427 164.559 24.5893 164.559 23.48C164.559 22.456 164.858 21.6453 165.455 21.048C166.095 20.4507 166.97 20.152 168.079 20.152C169.146 20.152 169.956 20.4507 170.511 21.048C171.108 21.6453 171.407 22.456 171.407 23.48C171.407 25.784 170.298 26.936 168.079 26.936ZM183.543 37.624C183.543 38.6053 183.799 39.4587 184.311 40.184C184.823 40.9093 185.484 41.5707 186.295 42.168C187.106 42.7227 187.98 43.256 188.919 43.768C189.986 44.3653 191.01 44.984 191.991 45.624C193.015 46.264 193.868 47.0533 194.551 47.992C195.234 48.888 195.575 50.0613 195.575 51.512C195.575 52.8773 195.212 54.2 194.487 55.48C193.804 56.7173 192.759 57.7413 191.351 58.552C189.986 59.32 188.258 59.704 186.167 59.704C185.1 59.704 184.055 59.576 183.031 59.32C182.007 59.064 180.898 58.5947 179.703 57.912C179.618 57.8267 179.532 57.72 179.447 57.592C179.362 57.464 179.319 57.3147 179.319 57.144L179.191 51.256C179.191 51.128 179.298 51.064 179.511 51.064C179.767 51.0213 179.916 51.064 179.959 51.192C180.428 52.5573 181.068 53.7947 181.879 54.904C182.732 56.0133 183.671 56.888 184.695 57.528C185.762 58.1253 186.85 58.424 187.959 58.424C189.026 58.424 189.858 58.1467 190.455 57.592C191.095 56.9947 191.394 56.0987 191.351 54.904C191.351 53.7093 191.074 52.728 190.519 51.96C189.964 51.1493 189.26 50.4667 188.407 49.912C187.596 49.3573 186.743 48.8453 185.847 48.376C184.823 47.8213 183.82 47.2667 182.839 46.712C181.9 46.1147 181.111 45.368 180.471 44.472C179.831 43.5333 179.511 42.3173 179.511 40.824C179.511 39.0747 179.938 37.688 180.791 36.664C181.687 35.5973 182.839 34.8293 184.247 34.36C185.655 33.848 187.106 33.592 188.599 33.592C189.495 33.592 190.327 33.656 191.095 33.784C191.906 33.912 192.78 34.168 193.719 34.552C194.103 34.68 194.295 34.9147 194.295 35.256C194.295 36.0667 194.274 36.8987 194.231 37.752C194.188 38.6053 194.167 39.5653 194.167 40.632C194.167 40.7173 194.039 40.76 193.783 40.76C193.527 40.76 193.399 40.7173 193.399 40.632C193.399 39.7787 193.058 38.904 192.375 38.008C191.692 37.112 190.818 36.3653 189.751 35.768C188.727 35.128 187.639 34.808 186.487 34.808C185.719 34.808 185.036 35 184.439 35.384C183.842 35.768 183.543 36.5147 183.543 37.624ZM200.754 59C200.626 59 200.562 58.872 200.562 58.616C200.562 58.36 200.626 58.232 200.754 58.232C202.204 58.232 203.164 57.9333 203.634 57.336C204.146 56.7387 204.402 55.5653 204.402 53.816V42.168C204.402 40.7173 204.252 39.672 203.954 39.032C203.655 38.3493 203.143 38.008 202.418 38.008C202.076 38.008 201.692 38.072 201.266 38.2C200.839 38.328 200.37 38.52 199.858 38.776C199.687 38.8187 199.538 38.712 199.41 38.456C199.324 38.2 199.346 38.0507 199.474 38.008L208.69 33.72C208.775 33.6773 208.839 33.656 208.882 33.656C209.052 33.656 209.223 33.7627 209.394 33.976C209.607 34.1467 209.714 34.296 209.714 34.424C209.714 34.8933 209.692 35.7467 209.65 36.984C209.607 38.2213 209.586 39.928 209.586 42.104V53.816C209.586 55.5653 209.82 56.7387 210.29 57.336C210.802 57.9333 211.783 58.232 213.234 58.232C213.362 58.232 213.426 58.36 213.426 58.616C213.426 58.872 213.362 59 213.234 59C212.38 59 211.42 58.9787 210.354 58.936C209.287 58.8933 208.156 58.872 206.962 58.872C205.81 58.872 204.679 58.8933 203.57 58.936C202.503 58.9787 201.564 59 200.754 59ZM206.642 26.936C205.532 26.936 204.658 26.6373 204.018 26.04C203.42 25.4427 203.122 24.5893 203.122 23.48C203.122 22.456 203.42 21.6453 204.018 21.048C204.658 20.4507 205.532 20.152 206.642 20.152C207.708 20.152 208.519 20.4507 209.074 21.048C209.671 21.6453 209.97 22.456 209.97 23.48C209.97 25.784 208.86 26.936 206.642 26.936ZM231.77 59.832C229.978 59.832 228.228 59.5333 226.522 58.936C224.815 58.296 223.258 57.336 221.85 56.056L225.562 49.208C225.562 51.512 226.01 53.368 226.906 54.776C227.802 56.1413 228.868 57.1227 230.106 57.72C231.343 58.2747 232.452 58.552 233.434 58.552C235.524 58.552 237.124 57.6133 238.234 55.736C239.343 53.8587 239.898 51.192 239.898 47.736C239.898 43.8533 239.215 40.9947 237.85 39.16C236.484 37.3253 234.692 36.408 232.474 36.408C230.98 36.408 229.572 36.792 228.25 37.56C226.97 38.2853 225.796 39.1387 224.73 40.12L224.154 39.608C225.05 38.6693 226.01 37.7307 227.034 36.792C228.1 35.8533 229.295 35.064 230.618 34.424C231.983 33.784 233.498 33.464 235.162 33.464C237.039 33.464 238.767 33.912 240.346 34.808C241.924 35.6613 243.204 36.9627 244.186 38.712C245.167 40.4613 245.658 42.68 245.658 45.368C245.658 48.568 244.975 51.256 243.61 53.432C242.287 55.5653 240.559 57.1653 238.426 58.232C236.292 59.2987 234.074 59.832 231.77 59.832ZM217.37 59.384C217.199 59.4267 217.071 59.3413 216.986 59.128C216.9 58.9573 216.922 58.8507 217.049 58.808C218.116 58.1253 218.927 57.3147 219.482 56.376C220.079 55.4373 220.378 54.1147 220.378 52.408V21.112C220.378 19.6613 220.228 18.5947 219.93 17.912C219.674 17.2293 219.183 16.888 218.458 16.888C217.818 16.888 216.964 17.144 215.898 17.656C215.727 17.6987 215.578 17.592 215.45 17.336C215.364 17.08 215.364 16.9307 215.45 16.888L224.345 12.664C224.474 12.6213 224.58 12.6 224.666 12.6C224.836 12.6 225.028 12.6853 225.242 12.856C225.455 13.0267 225.562 13.176 225.562 13.304V55.608L217.37 59.384ZM250.629 59C250.501 59 250.437 58.872 250.437 58.616C250.437 58.36 250.501 58.232 250.629 58.232C252.079 58.232 253.039 57.9333 253.509 57.336C254.021 56.7387 254.277 55.5653 254.277 53.816V42.168C254.277 40.7173 254.127 39.672 253.829 39.032C253.53 38.3493 253.018 38.008 252.293 38.008C251.951 38.008 251.567 38.072 251.141 38.2C250.714 38.328 250.245 38.52 249.733 38.776C249.562 38.8187 249.413 38.712 249.285 38.456C249.199 38.2 249.221 38.0507 249.349 38.008L258.565 33.72C258.65 33.6773 258.714 33.656 258.757 33.656C258.927 33.656 259.098 33.7627 259.269 33.976C259.482 34.1467 259.589 34.296 259.589 34.424C259.589 34.8933 259.567 35.7467 259.525 36.984C259.482 38.2213 259.461 39.928 259.461 42.104V53.816C259.461 55.5653 259.695 56.7387 260.165 57.336C260.677 57.9333 261.658 58.232 263.109 58.232C263.237 58.232 263.301 58.36 263.301 58.616C263.301 58.872 263.237 59 263.109 59C262.255 59 261.295 58.9787 260.229 58.936C259.162 58.8933 258.031 58.872 256.837 58.872C255.685 58.872 254.554 58.8933 253.445 58.936C252.378 58.9787 251.439 59 250.629 59ZM256.517 26.936C255.407 26.936 254.533 26.6373 253.893 26.04C253.295 25.4427 252.997 24.5893 252.997 23.48C252.997 22.456 253.295 21.6453 253.893 21.048C254.533 20.4507 255.407 20.152 256.517 20.152C257.583 20.152 258.394 20.4507 258.949 21.048C259.546 21.6453 259.845 22.456 259.845 23.48C259.845 25.784 258.735 26.936 256.517 26.936ZM267.181 59C267.053 59 266.989 58.872 266.989 58.616C266.989 58.36 267.053 58.232 267.181 58.232C268.589 58.232 269.549 57.9333 270.061 57.336C270.573 56.7387 270.829 55.5653 270.829 53.816V21.112C270.829 19.6187 270.701 18.552 270.445 17.912C270.189 17.2293 269.698 16.888 268.973 16.888C268.375 16.888 267.501 17.144 266.349 17.656C266.221 17.6987 266.093 17.592 265.965 17.336C265.837 17.08 265.815 16.9307 265.901 16.888L274.925 12.664C275.01 12.6213 275.095 12.6 275.181 12.6C275.351 12.6 275.543 12.6853 275.757 12.856C275.97 13.0267 276.077 13.176 276.077 13.304V53.816C276.077 55.5653 276.311 56.7387 276.781 57.336C277.293 57.9333 278.274 58.232 279.725 58.232C279.853 58.232 279.917 58.36 279.917 58.616C279.917 58.872 279.853 59 279.725 59C278.914 59 277.954 58.9787 276.845 58.936C275.778 58.8933 274.647 58.872 273.453 58.872C272.258 58.872 271.106 58.8933 269.997 58.936C268.93 58.9787 267.991 59 267.181 59ZM284.566 59C284.438 59 284.374 58.872 284.374 58.616C284.374 58.36 284.438 58.232 284.566 58.232C286.017 58.232 286.977 57.9333 287.446 57.336C287.958 56.7387 288.214 55.5653 288.214 53.816V42.168C288.214 40.7173 288.065 39.672 287.766 39.032C287.467 38.3493 286.955 38.008 286.23 38.008C285.889 38.008 285.505 38.072 285.078 38.2C284.651 38.328 284.182 38.52 283.67 38.776C283.499 38.8187 283.35 38.712 283.222 38.456C283.137 38.2 283.158 38.0507 283.286 38.008L292.502 33.72C292.587 33.6773 292.651 33.656 292.694 33.656C292.865 33.656 293.035 33.7627 293.206 33.976C293.419 34.1467 293.526 34.296 293.526 34.424C293.526 34.8933 293.505 35.7467 293.462 36.984C293.419 38.2213 293.398 39.928 293.398 42.104V53.816C293.398 55.5653 293.633 56.7387 294.102 57.336C294.614 57.9333 295.595 58.232 297.046 58.232C297.174 58.232 297.238 58.36 297.238 58.616C297.238 58.872 297.174 59 297.046 59C296.193 59 295.233 58.9787 294.166 58.936C293.099 58.8933 291.969 58.872 290.774 58.872C289.622 58.872 288.491 58.8933 287.382 58.936C286.315 58.9787 285.377 59 284.566 59ZM290.454 26.936C289.345 26.936 288.47 26.6373 287.83 26.04C287.233 25.4427 286.934 24.5893 286.934 23.48C286.934 22.456 287.233 21.6453 287.83 21.048C288.47 20.4507 289.345 20.152 290.454 20.152C291.521 20.152 292.331 20.4507 292.886 21.048C293.483 21.6453 293.782 22.456 293.782 23.48C293.782 25.784 292.673 26.936 290.454 26.936Z" fill="white"/>
<path d="M293.42 90.9691C291.917 90.9691 290.648 90.652 289.615 90.0178C288.581 89.3835 287.794 88.5496 287.254 87.516C286.714 86.4589 286.444 85.3431 286.444 84.1685C286.444 82.7826 286.784 81.5258 287.465 80.3982C288.17 79.2472 289.11 78.331 290.284 77.6498C291.482 76.9685 292.833 76.6279 294.336 76.6279C295.722 76.6279 296.791 76.9451 297.543 77.5793C298.295 78.1901 298.671 79.0357 298.671 80.1163C298.671 80.3747 298.647 80.5979 298.6 80.7858C298.553 80.9737 298.447 81.0677 298.283 81.0677H295.358C295.429 79.9401 295.276 79.0357 294.9 78.3545C294.524 77.6733 293.914 77.3327 293.068 77.3327C292.011 77.3327 291.165 77.826 290.531 78.8126C289.897 79.7757 289.58 81.0795 289.58 82.7238C289.58 84.0628 289.791 85.2374 290.214 86.2475C290.66 87.2341 291.283 88.0093 292.081 88.5731C292.904 89.1368 293.878 89.4187 295.006 89.4187C295.593 89.4187 296.204 89.3365 296.838 89.1721C297.473 88.9842 298.06 88.714 298.6 88.3616C298.647 88.3147 298.706 88.3382 298.776 88.4321C298.87 88.5261 298.894 88.6083 298.847 88.6788C298.001 89.501 297.132 90.0882 296.239 90.4406C295.347 90.793 294.407 90.9691 293.42 90.9691ZM288.558 81.1382L288.522 80.5392L296.345 80.363V81.0677L288.558 81.1382Z" fill="white"/>
<path d="M285.546 76.9451C285.593 76.9451 285.616 77.0155 285.616 77.1565C285.616 77.2974 285.593 77.3679 285.546 77.3679C284.888 77.3679 284.313 77.6028 283.819 78.0726C283.349 78.5425 282.891 79.2942 282.445 80.3278L278.076 90.5463C278.052 90.6403 277.935 90.6873 277.723 90.6873C277.512 90.6873 277.371 90.6403 277.301 90.5463L272.086 79.8697C271.569 78.7891 271.134 78.1079 270.782 77.826C270.429 77.5206 270.007 77.3679 269.513 77.3679C269.443 77.3679 269.408 77.2974 269.408 77.1565C269.408 77.0155 269.443 76.9451 269.513 76.9451C269.889 76.9451 270.312 76.9568 270.782 76.9803C271.252 77.0038 271.851 77.0155 272.579 77.0155C273.495 77.0155 274.27 77.0038 274.904 76.9803C275.562 76.9568 276.173 76.9451 276.737 76.9451C276.807 76.9451 276.842 77.0155 276.842 77.1565C276.842 77.2974 276.807 77.3679 276.737 77.3679C276.009 77.3679 275.433 77.4619 275.01 77.6498C274.611 77.8377 274.552 78.2018 274.834 78.7421L279.133 87.2693L277.618 89.8064L281.564 80.2573C281.94 79.3177 281.928 78.6012 281.529 78.1079C281.13 77.6146 280.413 77.3679 279.379 77.3679C279.333 77.3679 279.309 77.2974 279.309 77.1565C279.309 77.0155 279.333 76.9451 279.379 76.9451C279.943 76.9451 280.472 76.9568 280.965 76.9803C281.482 77.0038 282.14 77.0155 282.938 77.0155C283.479 77.0155 283.925 77.0038 284.277 76.9803C284.63 76.9568 285.053 76.9451 285.546 76.9451Z" fill="white"/>
<path d="M262.021 90.5463C261.951 90.5463 261.915 90.4759 261.915 90.3349C261.915 90.194 261.951 90.1235 262.021 90.1235C262.82 90.1235 263.348 89.9591 263.607 89.6302C263.889 89.3013 264.03 88.6553 264.03 87.6922V81.2792C264.03 80.4805 263.947 79.9049 263.783 79.5526C263.619 79.1767 263.337 78.9888 262.937 78.9888C262.749 78.9888 262.538 79.024 262.303 79.0945C262.068 79.165 261.81 79.2707 261.528 79.4116C261.434 79.4351 261.352 79.3764 261.281 79.2354C261.234 79.0945 261.246 79.0123 261.316 78.9888L266.39 76.628C266.437 76.6045 266.473 76.5927 266.496 76.5927C266.59 76.5927 266.684 76.6514 266.778 76.7689C266.896 76.8629 266.954 76.9451 266.954 77.0156C266.954 77.274 266.942 77.7438 266.919 78.425C266.896 79.1062 266.884 80.0459 266.884 81.2439V87.6922C266.884 88.6553 267.013 89.3013 267.271 89.6302C267.553 89.9591 268.094 90.1235 268.892 90.1235C268.963 90.1235 268.998 90.194 268.998 90.3349C268.998 90.4759 268.963 90.5463 268.892 90.5463C268.422 90.5463 267.894 90.5346 267.307 90.5111C266.719 90.4876 266.097 90.4759 265.439 90.4759C264.805 90.4759 264.182 90.4876 263.572 90.5111C262.984 90.5346 262.467 90.5463 262.021 90.5463ZM265.263 72.8929C264.652 72.8929 264.171 72.7285 263.818 72.3996C263.489 72.0707 263.325 71.6009 263.325 70.9901C263.325 70.4263 263.489 69.98 263.818 69.6511C264.171 69.3223 264.652 69.1578 265.263 69.1578C265.85 69.1578 266.296 69.3223 266.602 69.6511C266.931 69.98 267.095 70.4263 267.095 70.9901C267.095 72.2586 266.484 72.8929 265.263 72.8929Z" fill="white"/>
<path d="M243.491 90.5464C243.42 90.5464 243.385 90.4759 243.385 90.335C243.385 90.194 243.42 90.1235 243.491 90.1235C244.266 90.1235 244.795 89.9591 245.077 89.6302C245.358 89.3014 245.499 88.6554 245.499 87.6922V69.6864C245.499 68.8643 245.417 68.277 245.253 67.9246C245.112 67.5488 244.842 67.3608 244.442 67.3608C244.09 67.3608 243.608 67.5018 242.998 67.7837C242.927 67.8072 242.857 67.7602 242.786 67.6427C242.716 67.5018 242.716 67.4078 242.786 67.3608L247.684 65.0352C247.731 65.0117 247.755 65 247.755 65C247.778 65 247.802 65 247.825 65C247.942 65 248.048 65.047 248.142 65.1409C248.26 65.2349 248.318 65.3171 248.318 65.3876V87.6922C248.318 88.6554 248.448 89.3014 248.706 89.6302C248.988 89.9591 249.528 90.1235 250.327 90.1235C250.421 90.1235 250.468 90.194 250.468 90.335C250.468 90.4759 250.421 90.5464 250.327 90.5464C249.88 90.5464 249.364 90.5346 248.776 90.5111C248.213 90.4877 247.59 90.4759 246.909 90.4759C246.251 90.4759 245.629 90.4877 245.041 90.5111C244.454 90.5346 243.937 90.5464 243.491 90.5464ZM252.97 90.5464C252.899 90.5464 252.864 90.4759 252.864 90.335C252.864 90.194 252.899 90.1235 252.97 90.1235C253.745 90.1235 254.273 89.9591 254.555 89.6302C254.837 89.3014 254.978 88.6554 254.978 87.6922V82.442C254.978 79.858 253.968 78.566 251.948 78.566C251.196 78.566 250.421 78.7774 249.622 79.2003C248.823 79.6231 248.177 80.1986 247.684 80.9269L247.508 80.504C248.401 79.2355 249.364 78.2606 250.397 77.5794C251.431 76.8982 252.535 76.5575 253.709 76.5575C255.001 76.5575 256 76.9569 256.705 77.7556C257.433 78.5308 257.797 79.5761 257.797 80.8916V87.6922C257.797 88.6554 257.926 89.3014 258.184 89.6302C258.466 89.9591 259.007 90.1235 259.805 90.1235C259.899 90.1235 259.946 90.194 259.946 90.335C259.946 90.4759 259.899 90.5464 259.805 90.5464C259.359 90.5464 258.842 90.5346 258.255 90.5111C257.691 90.4877 257.069 90.4759 256.387 90.4759C255.73 90.4759 255.107 90.4877 254.52 90.5111C253.933 90.5346 253.416 90.5464 252.97 90.5464Z" fill="white"/>
<path d="M236.094 90.9691C234.473 90.9691 233.146 90.6285 232.112 89.9473C231.079 89.2426 230.304 88.3499 229.787 87.2693C229.293 86.1887 229.047 85.0964 229.047 83.9923C229.047 82.8178 229.282 81.7724 229.751 80.8563C230.245 79.9402 230.891 79.1767 231.689 78.5659C232.488 77.9317 233.357 77.4501 234.297 77.1212C235.26 76.7924 236.211 76.6279 237.151 76.6279C237.832 76.6279 238.502 76.7219 239.16 76.9098C239.817 77.0977 240.358 77.3796 240.78 77.7555C241.227 78.1313 241.45 78.5777 241.45 79.0945C241.45 79.4703 241.309 79.8109 241.027 80.1163C240.745 80.3982 240.322 80.5392 239.759 80.5392C239.242 80.5392 238.831 80.41 238.525 80.1516C238.243 79.8697 238.009 79.4821 237.821 78.9888C237.633 78.472 237.41 78.0726 237.151 77.7907C236.893 77.5088 236.458 77.3679 235.847 77.3679C234.72 77.3679 233.839 77.8847 233.205 78.9183C232.57 79.9284 232.253 81.2439 232.253 82.8648C232.253 84.0628 232.429 85.1551 232.782 86.1418C233.158 87.1284 233.757 87.9271 234.579 88.5378C235.401 89.1251 236.493 89.4187 237.856 89.4187C238.537 89.4187 239.136 89.3365 239.653 89.1721C240.193 89.0076 240.745 88.7492 241.309 88.3969C241.356 88.3499 241.415 88.3734 241.485 88.4674C241.579 88.5613 241.603 88.6318 241.556 88.6788C240.733 89.4305 239.888 90.006 239.019 90.4054C238.173 90.7812 237.198 90.9691 236.094 90.9691Z" fill="white"/>
<path d="M220.579 80.9973L220.333 80.5745C221.225 79.5174 221.977 78.707 222.588 78.1432C223.222 77.5559 223.751 77.1566 224.173 76.9451C224.596 76.7102 224.996 76.5928 225.371 76.5928C225.865 76.5928 226.358 76.769 226.851 77.1213C227.368 77.4502 227.627 77.873 227.627 78.3898C227.627 78.8127 227.497 79.165 227.239 79.4469C226.981 79.7288 226.616 79.8698 226.147 79.8698C225.724 79.8698 225.395 79.7523 225.16 79.5174C224.925 79.2825 224.702 79.0593 224.491 78.8479C224.279 78.6365 223.985 78.5308 223.61 78.5308C223.422 78.5308 223.222 78.5895 223.011 78.707C222.799 78.8009 222.506 79.0241 222.13 79.3764C221.754 79.7288 221.237 80.2691 220.579 80.9973ZM216.562 90.5464C216.492 90.5464 216.457 90.4759 216.457 90.335C216.457 90.194 216.492 90.1235 216.562 90.1235C217.361 90.1235 217.89 89.9591 218.148 89.6302C218.406 89.3014 218.536 88.6554 218.536 87.6922V80.9621C218.536 80.2104 218.453 79.6583 218.289 79.306C218.124 78.9536 217.831 78.7774 217.408 78.7774C217.197 78.7774 216.938 78.8244 216.633 78.9184C216.327 79.0123 215.999 79.1415 215.646 79.306C215.552 79.3295 215.47 79.2825 215.4 79.165C215.353 79.0241 215.364 78.9419 215.435 78.9184L220.051 76.6632C220.168 76.6163 220.25 76.5928 220.297 76.5928C220.532 76.5928 220.767 76.8629 221.002 77.4032C221.261 77.9435 221.39 78.7304 221.39 79.764V87.6922C221.39 88.3265 221.484 88.8315 221.672 89.2074C221.86 89.5598 222.188 89.8064 222.658 89.9474C223.128 90.0648 223.786 90.1235 224.631 90.1235C224.725 90.1235 224.772 90.194 224.772 90.335C224.772 90.4759 224.725 90.5464 224.631 90.5464C224.021 90.5464 223.316 90.5346 222.517 90.5111C221.742 90.4877 220.896 90.4759 219.98 90.4759C219.346 90.4759 218.723 90.4877 218.113 90.5111C217.525 90.5346 217.009 90.5464 216.562 90.5464Z" fill="white"/>
<path d="M211.491 90.7577C211.397 90.8047 211.291 90.8282 211.174 90.8282C210.798 90.8282 210.422 90.558 210.046 90.0178C209.67 89.4775 209.483 88.6905 209.483 87.6569V81.561C209.483 80.5744 209.4 79.7757 209.236 79.1649C209.095 78.5542 208.884 78.1079 208.602 77.826C208.32 77.5441 207.956 77.4031 207.509 77.4031C207.086 77.4031 206.711 77.5206 206.382 77.7555C206.076 77.9669 205.83 78.2723 205.642 78.6716C205.477 79.071 205.372 79.576 205.325 80.1868C205.278 80.7506 205.102 81.1852 204.796 81.4906C204.514 81.7959 204.091 81.9486 203.528 81.9486C203.011 81.9486 202.623 81.8312 202.365 81.5963C202.13 81.3614 202.012 81.0442 202.012 80.6449C202.012 80.1516 202.247 79.67 202.717 79.2002C203.187 78.7304 203.774 78.3075 204.479 77.9317C205.184 77.5323 205.924 77.2152 206.699 76.9803C207.474 76.7454 208.179 76.6279 208.813 76.6279C209.8 76.6279 210.634 76.9451 211.315 77.5793C211.996 78.1901 212.337 79.1649 212.337 80.5039V86.7408C212.337 87.469 212.454 88.021 212.689 88.3969C212.924 88.7727 213.265 88.9607 213.711 88.9607C214.087 88.9607 214.51 88.855 214.979 88.6435C215.097 88.5966 215.179 88.6435 215.226 88.7845C215.273 88.9019 215.238 88.9842 215.12 89.0311L211.491 90.7577ZM204.268 90.793C203.539 90.793 202.964 90.5933 202.541 90.1939C202.118 89.7946 201.907 89.266 201.907 88.6083C201.907 87.8331 202.2 87.2576 202.788 86.8817C203.398 86.5059 204.35 86.1065 205.642 85.6837L209.835 84.2742L209.941 84.7675L206.946 85.8599C206.358 86.0948 205.935 86.3532 205.677 86.6351C205.419 86.8935 205.289 87.2223 205.289 87.6217C205.289 88.115 205.43 88.5026 205.712 88.7845C205.994 89.0664 206.347 89.2073 206.769 89.2073C206.981 89.2073 207.227 89.1721 207.509 89.1016C207.815 89.0311 208.132 88.9137 208.461 88.7492L210.751 87.5512L210.822 88.0798L207.756 89.7359C207.145 90.0647 206.534 90.3231 205.924 90.5111C205.336 90.699 204.784 90.793 204.268 90.793Z" fill="white"/>
<path d="M183.23 91.0045C182.243 91.0045 181.28 90.84 180.34 90.5111C179.401 90.1588 178.543 89.6302 177.768 88.9255L179.812 85.1552C179.812 86.4237 180.059 87.4456 180.552 88.2208C181.045 88.9725 181.632 89.5128 182.314 89.8417C182.995 90.147 183.606 90.2997 184.146 90.2997C185.297 90.2997 186.178 89.7829 186.789 88.7493C187.399 87.7157 187.705 86.2475 187.705 84.3448C187.705 82.2071 187.329 80.6332 186.577 79.6231C185.826 78.613 184.839 78.1079 183.617 78.1079C182.795 78.1079 182.02 78.3194 181.292 78.7422C180.587 79.1415 179.941 79.6114 179.354 80.1516L179.037 79.8698C179.53 79.353 180.059 78.8362 180.622 78.3194C181.21 77.8026 181.867 77.368 182.596 77.0156C183.347 76.6632 184.181 76.4871 185.097 76.4871C186.131 76.4871 187.082 76.7337 187.951 77.227C188.821 77.6968 189.525 78.4133 190.066 79.3764C190.606 80.3396 190.876 81.5611 190.876 83.041C190.876 84.8029 190.5 86.2828 189.749 87.4808C189.02 88.6554 188.069 89.5363 186.894 90.1235C185.72 90.7108 184.498 91.0045 183.23 91.0045ZM175.302 90.7578C175.208 90.7813 175.137 90.7343 175.09 90.6169C175.043 90.5229 175.055 90.4642 175.125 90.4407C175.713 90.0648 176.159 89.6185 176.464 89.1017C176.793 88.5849 176.958 87.8567 176.958 86.917V69.6864C176.958 68.8877 176.876 68.3005 176.711 67.9246C176.57 67.5488 176.3 67.3608 175.901 67.3608C175.548 67.3608 175.078 67.5018 174.491 67.7837C174.397 67.8072 174.315 67.7484 174.245 67.6075C174.198 67.4665 174.198 67.3843 174.245 67.3608L179.142 65.0352C179.213 65.0117 179.272 65 179.319 65C179.413 65 179.518 65.047 179.636 65.1409C179.753 65.2349 179.812 65.3171 179.812 65.3876V88.6789L175.302 90.7578Z" fill="white"/>
<path d="M167.512 90.9691C166.009 90.9691 164.74 90.652 163.707 90.0178C162.673 89.3835 161.886 88.5496 161.346 87.516C160.806 86.4589 160.535 85.3431 160.535 84.1685C160.535 82.7826 160.876 81.5258 161.557 80.3982C162.262 79.2472 163.202 78.331 164.376 77.6498C165.574 76.9685 166.925 76.6279 168.428 76.6279C169.814 76.6279 170.883 76.9451 171.635 77.5793C172.387 78.1901 172.762 79.0357 172.762 80.1163C172.762 80.3747 172.739 80.5979 172.692 80.7858C172.645 80.9737 172.539 81.0677 172.375 81.0677H169.45C169.521 79.9401 169.368 79.0357 168.992 78.3545C168.616 77.6733 168.006 77.3327 167.16 77.3327C166.103 77.3327 165.257 77.826 164.623 78.8126C163.989 79.7757 163.671 81.0795 163.671 82.7238C163.671 84.0628 163.883 85.2374 164.306 86.2475C164.752 87.2341 165.375 88.0093 166.173 88.5731C166.995 89.1368 167.97 89.4187 169.098 89.4187C169.685 89.4187 170.296 89.3365 170.93 89.1721C171.564 88.9842 172.152 88.714 172.692 88.3616C172.739 88.3147 172.798 88.3382 172.868 88.4321C172.962 88.5261 172.986 88.6083 172.939 88.6788C172.093 89.501 171.224 90.0882 170.331 90.4406C169.438 90.793 168.499 90.9691 167.512 90.9691ZM162.65 81.1382L162.614 80.5392L170.437 80.363V81.0677L162.65 81.1382Z" fill="white"/>
<path d="M151.455 90.5111L146.205 79.8697C145.712 78.8361 145.313 78.1666 145.007 77.8612C144.725 77.5323 144.361 77.3679 143.915 77.3679C143.868 77.3679 143.844 77.2974 143.844 77.1565C143.844 77.0155 143.868 76.9451 143.915 76.9451C144.267 76.9451 144.655 76.9568 145.078 76.9803C145.524 77.0038 146.076 77.0155 146.734 77.0155C147.579 77.0155 148.296 77.0038 148.883 76.9803C149.494 76.9568 150.058 76.9451 150.574 76.9451C150.621 76.9451 150.645 77.0155 150.645 77.1565C150.645 77.2974 150.621 77.3679 150.574 77.3679C149.94 77.3679 149.447 77.4854 149.095 77.7203C148.766 77.9317 148.719 78.2723 148.954 78.7421L153.252 87.2341L151.773 89.7711L155.684 80.2573C156.06 79.3177 156.048 78.6012 155.649 78.1079C155.249 77.6146 154.544 77.3679 153.534 77.3679C153.464 77.3679 153.429 77.2974 153.429 77.1565C153.429 77.0155 153.464 76.9451 153.534 76.9451C154.075 76.9451 154.591 76.9568 155.085 76.9803C155.602 77.0038 156.259 77.0155 157.058 77.0155C157.622 77.0155 158.068 77.0038 158.397 76.9803C158.749 76.9568 159.172 76.9451 159.665 76.9451C159.736 76.9451 159.771 77.0155 159.771 77.1565C159.771 77.2974 159.736 77.3679 159.665 77.3679C159.031 77.3679 158.467 77.6028 157.974 78.0726C157.504 78.519 157.034 79.2707 156.565 80.3278L152.231 90.5111C152.207 90.605 152.078 90.652 151.843 90.652C151.632 90.652 151.502 90.605 151.455 90.5111ZM142.893 90.5111L137.678 79.8697C137.161 78.8126 136.727 78.1314 136.374 77.826C136.022 77.5206 135.599 77.3679 135.106 77.3679C135.035 77.3679 135 77.2974 135 77.1565C135 77.0155 135.035 76.9451 135.106 76.9451C135.482 76.9451 135.904 76.9568 136.374 76.9803C136.844 77.0038 137.443 77.0155 138.171 77.0155C138.993 77.0155 139.71 77.0038 140.321 76.9803C140.931 76.9568 141.495 76.9451 142.012 76.9451C142.083 76.9451 142.118 77.0155 142.118 77.1565C142.118 77.2974 142.083 77.3679 142.012 77.3679C141.378 77.3679 140.861 77.4619 140.462 77.6498C140.086 77.8377 140.039 78.2018 140.321 78.7421L144.76 87.2341L143.21 89.7711L147.051 80.5039L147.897 80.6801L143.668 90.5111C143.645 90.605 143.515 90.652 143.281 90.652C143.069 90.652 142.94 90.605 142.893 90.5111Z" fill="white"/>
</svg>
