<svg width="709" height="130" viewBox="0 0 709 130" fill="none" xmlns="http://www.w3.org/2000/svg">
<path d="M681.836 129.4C674.345 129.4 668.024 127.82 662.874 124.659C657.723 121.499 653.802 117.343 651.11 112.193C648.418 106.926 647.072 101.366 647.072 95.5134C647.072 88.6074 648.769 82.3451 652.163 76.7267C655.675 70.9911 660.357 66.4261 666.21 63.0317C672.179 59.6372 678.91 57.9399 686.401 57.9399C693.307 57.9399 698.633 59.5201 702.378 62.6805C706.124 65.7238 707.997 69.9377 707.997 75.322C707.997 76.6096 707.88 77.7216 707.646 78.658C707.412 79.5944 706.885 80.0626 706.066 80.0626H691.493C691.844 74.4441 691.083 69.9377 689.21 66.5432C687.337 63.1487 684.294 61.4515 680.08 61.4515C674.813 61.4515 670.599 63.9095 667.439 68.8257C664.278 73.6248 662.698 80.1211 662.698 88.3147C662.698 94.9866 663.752 100.839 665.858 105.872C668.082 110.789 671.184 114.651 675.164 117.46C679.261 120.27 684.118 121.674 689.737 121.674C692.663 121.674 695.707 121.265 698.867 120.445C702.027 119.509 704.954 118.163 707.646 116.407C707.88 116.173 708.172 116.29 708.524 116.758C708.992 117.226 709.109 117.636 708.875 117.987C704.661 122.084 700.33 125.01 695.882 126.766C691.434 128.522 686.752 129.4 681.836 129.4ZM657.606 80.4138L657.431 77.429L696.409 76.5511V80.0626L657.606 80.4138Z" fill="#F7F7F7"/>
<path d="M556.67 127.293C556.319 127.293 556.144 126.942 556.144 126.24C556.144 125.537 556.319 125.186 556.67 125.186C560.533 125.186 563.167 124.367 564.571 122.728C565.976 121.089 566.678 117.871 566.678 113.071V23.3517C566.678 19.2549 566.269 16.3286 565.449 14.5729C564.747 12.7001 563.401 11.7636 561.411 11.7636C559.655 11.7636 557.256 12.4659 554.212 13.8706C553.861 13.9876 553.51 13.7535 553.159 13.1683C552.808 12.466 552.808 11.9977 553.159 11.7636L577.564 0.175575C577.798 0.0585248 577.915 0 577.915 0C578.032 0 578.149 0 578.266 0C578.852 0 579.378 0.234103 579.846 0.702309C580.432 1.17051 580.724 1.58019 580.724 1.93134V113.071C580.724 117.871 581.368 121.089 582.656 122.728C584.06 124.367 586.753 125.186 590.732 125.186C591.2 125.186 591.435 125.537 591.435 126.24C591.435 126.942 591.2 127.293 590.732 127.293C588.508 127.293 585.933 127.235 583.007 127.118C580.198 127.001 577.096 126.942 573.701 126.942C570.424 126.942 567.322 127.001 564.396 127.118C561.469 127.235 558.894 127.293 556.67 127.293ZM603.901 127.293C603.549 127.293 603.374 126.942 603.374 126.24C603.374 125.537 603.549 125.186 603.901 125.186C607.763 125.186 610.397 124.367 611.801 122.728C613.206 121.089 613.908 117.871 613.908 113.071V86.9105C613.908 74.0349 608.875 67.5971 598.809 67.5971C595.063 67.5971 591.2 68.6505 587.221 70.7574C583.241 72.8644 580.022 75.7321 577.564 79.3607L576.686 77.2538C581.134 70.933 585.933 66.0754 591.083 62.6809C596.234 59.2864 601.735 57.5892 607.588 57.5892C614.025 57.5892 619 59.5791 622.512 63.5588C626.14 67.4215 627.955 72.6303 627.955 79.1851V113.071C627.955 117.871 628.598 121.089 629.886 122.728C631.29 124.367 633.983 125.186 637.962 125.186C638.431 125.186 638.665 125.537 638.665 126.24C638.665 126.942 638.431 127.293 637.962 127.293C635.738 127.293 633.163 127.235 630.237 127.118C627.428 127.001 624.326 126.942 620.931 126.942C617.654 126.942 614.552 127.001 611.626 127.118C608.7 127.235 606.124 127.293 603.901 127.293Z" fill="#F7F7F7"/>
<path d="M519.813 129.4C511.736 129.4 505.123 127.702 499.973 124.308C494.822 120.796 490.96 116.348 488.385 110.964C485.927 105.58 484.698 100.137 484.698 94.6355C484.698 88.7829 485.868 83.5742 488.209 79.0092C490.667 74.4442 493.886 70.64 497.866 67.5967C501.846 64.4363 506.176 62.0367 510.858 60.398C515.658 58.7593 520.398 57.9399 525.08 57.9399C528.475 57.9399 531.811 58.4081 535.088 59.3445C538.365 60.281 541.058 61.6856 543.165 63.5584C545.389 65.4312 546.501 67.6552 546.501 70.2303C546.501 72.1031 545.798 73.8004 544.394 75.322C542.989 76.7267 540.882 77.429 538.073 77.429C535.498 77.429 533.449 76.7852 531.928 75.4976C530.523 74.093 529.353 72.1617 528.416 69.7036C527.48 67.1285 526.368 65.1386 525.08 63.734C523.793 62.3294 521.627 61.627 518.584 61.627C512.965 61.627 508.576 64.2022 505.416 69.3524C502.255 74.3856 500.675 80.9405 500.675 89.017C500.675 94.9866 501.553 100.43 503.309 105.346C505.181 110.262 508.166 114.242 512.263 117.285C516.36 120.211 521.803 121.674 528.592 121.674C531.986 121.674 534.971 121.265 537.546 120.445C540.238 119.626 542.989 118.338 545.798 116.583C546.032 116.348 546.325 116.466 546.676 116.934C547.144 117.402 547.261 117.753 547.027 117.987C542.93 121.733 538.717 124.601 534.386 126.59C530.172 128.463 525.314 129.4 519.813 129.4Z" fill="#F7F7F7"/>
<path d="M439.991 127.293C439.64 127.293 439.465 126.942 439.465 126.24C439.465 125.538 439.64 125.186 439.991 125.186C443.971 125.186 446.605 124.367 447.892 122.728C449.297 121.09 449.999 117.871 449.999 113.072V81.1167C449.999 77.1369 449.59 74.2692 448.77 72.5134C447.951 70.6406 446.546 69.7042 444.556 69.7042C443.62 69.7042 442.567 69.8798 441.396 70.2309C440.226 70.5821 438.938 71.1088 437.533 71.8111C437.065 71.9282 436.655 71.6355 436.304 70.9332C436.07 70.2309 436.129 69.8212 436.48 69.7042L461.763 57.9406C461.997 57.8235 462.173 57.765 462.29 57.765C462.758 57.765 463.226 58.0576 463.694 58.6429C464.28 59.1111 464.572 59.5207 464.572 59.8719C464.572 61.1595 464.514 63.5005 464.397 66.895C464.28 70.2895 464.221 74.9715 464.221 80.9411V113.072C464.221 117.871 464.865 121.09 466.152 122.728C467.557 124.367 470.249 125.186 474.229 125.186C474.58 125.186 474.756 125.538 474.756 126.24C474.756 126.942 474.58 127.293 474.229 127.293C471.888 127.293 469.254 127.235 466.328 127.118C463.402 127.001 460.3 126.942 457.022 126.942C453.862 126.942 450.76 127.001 447.717 127.118C444.791 127.235 442.215 127.293 439.991 127.293ZM456.144 39.3294C453.101 39.3294 450.702 38.51 448.946 36.8713C447.307 35.2326 446.488 32.8916 446.488 29.8483C446.488 27.039 447.307 24.8151 448.946 23.1763C450.702 21.5376 453.101 20.7183 456.144 20.7183C459.071 20.7183 461.295 21.5376 462.816 23.1763C464.455 24.8151 465.274 27.039 465.274 29.8483C465.274 36.169 462.231 39.3294 456.144 39.3294Z" fill="#F7F7F7"/>
<path d="M405.593 129.4C402.784 129.4 399.975 128.932 397.166 127.995C394.474 127.059 392.191 125.479 390.318 123.255C388.562 121.031 387.685 117.87 387.685 113.774V74.0934C387.685 71.5182 387.392 69.5284 386.807 68.1237C386.339 66.7191 385.461 65.7827 384.173 65.3145C382.885 64.7293 381.071 64.4366 378.73 64.4366C378.262 64.4366 378.028 63.9684 378.028 63.032C378.028 62.0956 378.262 61.6274 378.73 61.6274C384.232 61.3933 388.68 60.1057 392.074 57.7647C395.586 55.3066 398.044 51.8536 399.448 47.4057C399.565 46.9375 400.033 46.7034 400.853 46.7034C401.672 46.7034 402.082 46.9375 402.082 47.4057V107.98C402.082 112.779 403.252 116.232 405.593 118.339C408.051 120.446 411.212 121.499 415.075 121.499C417.884 121.499 420.459 120.972 422.8 119.919C425.258 118.748 427.306 117.519 428.945 116.232C429.296 115.998 429.706 116.173 430.174 116.759C430.642 117.227 430.642 117.636 430.174 117.988C425.843 121.967 421.747 124.894 417.884 126.766C414.138 128.522 410.041 129.4 405.593 129.4ZM424.731 68.2993C420.049 67.2459 415.484 66.5435 411.036 66.1924C406.705 65.7242 402.023 65.4901 396.99 65.4901V61.2762C401.789 61.2762 406.413 61.1007 410.861 60.7495C415.426 60.3984 420.283 59.9887 425.434 59.5205C425.668 59.5205 425.902 59.9302 426.136 60.7495C426.487 61.5689 426.663 62.5638 426.663 63.7343C426.663 64.7878 426.429 65.8412 425.96 66.8947C425.609 67.9482 425.199 68.4164 424.731 68.2993Z" fill="#F7F7F7"/>
<path d="M355.041 128.346C354.573 128.58 354.046 128.697 353.461 128.697C351.588 128.697 349.715 127.351 347.842 124.659C345.97 121.967 345.033 118.046 345.033 112.895V82.5207C345.033 77.6045 344.623 73.6248 343.804 70.5815C343.102 67.5381 342.048 65.3142 340.644 63.9095C339.239 62.5049 337.425 61.8026 335.201 61.8026C333.094 61.8026 331.221 62.3879 329.582 63.5584C328.061 64.6119 326.832 66.1335 325.895 68.1234C325.076 70.1133 324.549 72.6299 324.315 75.6732C324.081 78.4824 323.203 80.6479 321.681 82.1695C320.277 83.6912 318.17 84.452 315.361 84.452C312.786 84.452 310.854 83.8668 309.567 82.6963C308.396 81.5258 307.811 79.9456 307.811 77.9557C307.811 75.4976 308.981 73.0981 311.322 70.757C313.663 68.416 316.59 66.3091 320.101 64.4363C323.613 62.4464 327.3 60.8662 331.163 59.6957C335.025 58.5252 338.537 57.9399 341.697 57.9399C346.613 57.9399 350.769 59.5201 354.163 62.6805C357.558 65.7238 359.255 70.5815 359.255 77.2534V108.33C359.255 111.959 359.84 114.71 361.011 116.583C362.181 118.455 363.878 119.392 366.102 119.392C367.975 119.392 370.082 118.865 372.423 117.812C373.008 117.578 373.418 117.812 373.652 118.514C373.886 119.099 373.711 119.509 373.125 119.743L355.041 128.346ZM319.048 128.522C315.419 128.522 312.551 127.527 310.445 125.537C308.338 123.547 307.284 120.913 307.284 117.636C307.284 113.773 308.747 110.906 311.674 109.033C314.717 107.16 319.457 105.17 325.895 103.063L346.789 96.0401L347.316 98.4982L332.392 103.941C329.465 105.112 327.358 106.399 326.071 107.804C324.783 109.091 324.14 110.73 324.14 112.72C324.14 115.178 324.842 117.109 326.246 118.514C327.651 119.919 329.407 120.621 331.514 120.621C332.567 120.621 333.796 120.445 335.201 120.094C336.723 119.743 338.303 119.158 339.941 118.338L351.354 112.369L351.705 115.002L336.43 123.255C333.387 124.893 330.343 126.181 327.3 127.117C324.374 128.054 321.623 128.522 319.048 128.522Z" fill="#F7F7F7"/>
<path d="M261.904 127.293C261.553 127.293 261.378 126.942 261.378 126.239C261.378 125.537 261.553 125.186 261.904 125.186C265.767 125.186 268.401 124.367 269.805 122.728C271.21 121.089 271.912 117.87 271.912 113.071V86.9102C271.912 74.0346 267.289 67.5967 258.042 67.5967C254.179 67.5967 250.433 68.6502 246.805 70.7571C243.176 72.864 240.133 75.7318 237.675 79.3604L236.797 77.2535C241.128 70.9327 245.751 66.0751 250.667 62.6806C255.701 59.2861 261.027 57.5889 266.645 57.5889C272.732 57.5889 277.472 59.3446 280.867 62.8562C284.261 66.3677 285.958 71.8106 285.958 79.1848V113.071C285.958 117.87 286.602 121.089 287.89 122.728C289.294 124.367 291.987 125.186 295.966 125.186C296.435 125.186 296.669 125.537 296.669 126.239C296.669 126.942 296.435 127.293 295.966 127.293C293.742 127.293 291.167 127.234 288.241 127.117C285.315 127 282.213 126.942 278.935 126.942C275.658 126.942 272.556 127 269.63 127.117C266.703 127.234 264.128 127.293 261.904 127.293ZM216.079 127.293C215.728 127.293 215.552 126.942 215.552 126.239C215.552 125.537 215.728 125.186 216.079 125.186C220.059 125.186 222.692 124.367 223.98 122.728C225.384 121.089 226.087 117.87 226.087 113.071V86.9102C226.087 74.0346 221.463 67.5967 212.216 67.5967C208.471 67.5967 204.725 68.6502 200.979 70.7571C197.351 72.864 194.307 75.7318 191.849 79.3604L190.971 77.2535C195.302 70.9327 199.926 66.0751 204.842 62.6806C209.875 59.2861 215.201 57.5889 220.819 57.5889C227.023 57.5889 231.764 59.2861 235.041 62.6806C238.436 66.0751 240.133 71.1083 240.133 77.7802V113.071C240.133 117.87 240.835 121.089 242.24 122.728C243.644 124.367 246.337 125.186 250.316 125.186C250.667 125.186 250.843 125.537 250.843 126.239C250.843 126.942 250.667 127.293 250.316 127.293C247.975 127.293 245.342 127.234 242.415 127.117C239.489 127 236.387 126.942 233.11 126.942C229.949 126.942 226.848 127 223.804 127.117C220.878 127.234 218.303 127.293 216.079 127.293ZM170.956 127.293C170.604 127.293 170.429 126.942 170.429 126.239C170.429 125.537 170.604 125.186 170.956 125.186C174.935 125.186 177.569 124.367 178.857 122.728C180.144 121.089 180.788 117.87 180.788 113.071V79.536C180.788 75.7903 180.378 73.0396 179.559 71.2839C178.74 69.5281 177.276 68.6502 175.169 68.6502C174.116 68.6502 172.828 68.8843 171.307 69.3525C169.785 69.8207 168.146 70.4645 166.391 71.2839C165.922 71.4009 165.513 71.1668 165.162 70.5815C164.927 69.8792 164.986 69.4696 165.337 69.3525L188.338 58.1156C188.923 57.8815 189.333 57.7644 189.567 57.7644C190.737 57.7644 191.908 59.1105 193.078 61.8027C194.366 64.4949 195.01 68.4161 195.01 73.5664V113.071C195.01 117.87 195.653 121.089 196.941 122.728C198.346 124.367 201.038 125.186 205.018 125.186C205.369 125.186 205.544 125.537 205.544 126.239C205.544 126.942 205.369 127.293 205.018 127.293C202.794 127.293 200.218 127.234 197.292 127.117C194.366 127 191.264 126.942 187.987 126.942C184.826 126.942 181.724 127 178.681 127.117C175.755 127.234 173.18 127.293 170.956 127.293Z" fill="#F7F7F7"/>
<path d="M131.615 129.4C124.124 129.4 117.803 127.82 112.653 124.659C107.503 121.499 103.581 117.343 100.889 112.193C98.1971 106.926 96.851 101.366 96.851 95.5134C96.851 88.6074 98.5483 82.3451 101.943 76.7267C105.454 70.9911 110.136 66.4261 115.989 63.0317C121.958 59.6372 128.689 57.9399 136.18 57.9399C143.086 57.9399 148.412 59.5201 152.158 62.6805C155.903 65.7238 157.776 69.9377 157.776 75.322C157.776 76.6096 157.659 77.7216 157.425 78.658C157.191 79.5944 156.664 80.0626 155.845 80.0626H141.272C141.623 74.4441 140.862 69.9377 138.989 66.5432C137.117 63.1487 134.073 61.4515 129.859 61.4515C124.592 61.4515 120.378 63.9095 117.218 68.8257C114.058 73.6248 112.477 80.1211 112.477 88.3147C112.477 94.9866 113.531 100.839 115.638 105.872C117.862 110.789 120.964 114.651 124.943 117.46C129.04 120.27 133.898 121.674 139.516 121.674C142.442 121.674 145.486 121.265 148.646 120.445C151.807 119.509 154.733 118.163 157.425 116.407C157.659 116.173 157.952 116.29 158.303 116.758C158.771 117.226 158.888 117.636 158.654 117.987C154.44 122.084 150.109 125.01 145.661 126.766C141.213 128.522 136.531 129.4 131.615 129.4ZM107.386 80.4138L107.21 77.429L146.188 76.5511V80.0626L107.386 80.4138Z" fill="#F7F7F7"/>
<path d="M30.0236 21.2445C22.8835 21.2445 17.031 23.4685 12.466 27.9165C8.01801 32.3644 4.50647 38.9193 1.93134 47.5811C1.93134 47.9322 1.58019 48.1078 0.877884 48.1078C0.292628 47.9907 0 47.8152 0 47.5811C0.234102 45.9423 0.468205 43.7184 0.702307 40.9091C0.93641 37.9829 1.17051 34.8225 1.40461 31.428C1.75577 28.0335 1.98987 24.7561 2.10692 21.5957C2.34102 18.3183 2.45808 15.6846 2.45808 13.6947C2.45808 13.1095 2.7507 12.8169 3.33596 12.8169C4.03827 12.8169 4.38942 13.1095 4.38942 13.6947C4.38942 14.8653 4.97468 15.7431 6.14519 16.3284C7.43275 16.7966 8.83737 17.1477 10.359 17.3818C11.8807 17.4989 13.1683 17.5574 14.2217 17.5574C24.2881 17.9086 36.0518 18.0842 49.5127 18.0842C57.8233 18.0842 64.3782 18.0256 69.1773 17.9086C74.0934 17.6745 78.834 17.5574 83.399 17.5574C87.6128 17.5574 90.7732 17.3233 92.8801 16.8551C95.1041 16.2699 96.5087 15.0408 97.094 13.168C97.211 12.6998 97.5622 12.4657 98.1474 12.4657C98.7327 12.4657 99.0253 12.6998 99.0253 13.168C98.9083 15.0408 98.7327 17.616 98.4986 20.8934C98.2645 24.0538 98.0889 27.4482 97.9719 31.0768C97.8548 34.5884 97.7378 37.8658 97.6207 40.9091C97.5037 43.8354 97.4451 46.0594 97.4451 47.5811C97.4451 47.8152 97.094 47.9322 96.3917 47.9322C95.8064 47.9322 95.4553 47.8152 95.3382 47.5811C94.0506 38.334 91.2414 31.6621 86.9105 27.5653C82.5796 23.3515 76.7856 21.2445 69.5284 21.2445C66.368 21.2445 63.9685 21.5372 62.3298 22.1224C60.691 22.7077 59.5791 23.8197 58.9938 25.4584C58.4085 26.98 58.1159 29.204 58.1159 32.1303V113.071C58.1159 116.466 58.4671 119.041 59.1694 120.797C59.9887 122.552 61.4519 123.723 63.5588 124.308C65.7828 124.893 69.1187 125.186 73.5667 125.186C73.9178 125.186 74.0934 125.537 74.0934 126.239C74.0934 126.942 73.9178 127.293 73.5667 127.293C70.4063 127.293 66.7777 127.234 62.6809 127.117C58.7012 127 54.3118 126.942 49.5127 126.942C44.9477 126.942 40.6753 127 36.6956 127.117C32.7158 127.234 29.0287 127.293 25.6342 127.293C25.4001 127.293 25.2831 126.942 25.2831 126.239C25.2831 125.537 25.4001 125.186 25.6342 125.186C30.0822 125.186 33.4181 124.893 35.6421 124.308C37.8661 123.723 39.3292 122.552 40.0315 120.797C40.8509 119.041 41.2605 116.466 41.2605 113.071V31.7791C41.2605 28.8529 40.9679 26.6874 40.3827 25.2828C39.9145 23.7611 38.861 22.7077 37.2223 22.1224C35.5836 21.5372 33.184 21.2445 30.0236 21.2445Z" fill="#F7F7F7"/>
</svg>
