<svg width="869" height="117" viewBox="0 0 869 117" fill="none" xmlns="http://www.w3.org/2000/svg">
<path d="M848.977 115.493C848.496 115.734 847.955 115.854 847.353 115.854C845.428 115.854 843.504 114.47 841.579 111.703C839.654 108.936 838.691 104.906 838.691 99.6127V68.3934C838.691 63.3406 838.27 59.2502 837.428 56.1223C836.706 52.9943 835.624 50.7085 834.18 49.2648C832.736 47.8212 830.871 47.0993 828.586 47.0993C826.42 47.0993 824.495 47.7009 822.811 48.9039C821.247 49.9867 819.984 51.5507 819.021 53.5958C818.179 55.641 817.638 58.2276 817.397 61.3556C817.157 64.2429 816.254 66.4685 814.69 68.0325C813.247 69.5965 811.081 70.3785 808.194 70.3785C805.547 70.3785 803.562 69.7769 802.239 68.5739C801.036 67.3708 800.434 65.7467 800.434 63.7015C800.434 61.1751 801.637 58.7088 804.043 56.3027C806.449 53.8966 809.457 51.7311 813.066 49.8062C816.675 47.761 820.465 46.1369 824.435 44.9339C828.405 43.7308 832.014 43.1293 835.263 43.1293C840.315 43.1293 844.586 44.7534 848.075 48.0016C851.564 51.1296 853.308 56.1223 853.308 62.9797V94.9208C853.308 98.6503 853.91 101.477 855.113 103.402C856.316 105.327 858.06 106.29 860.346 106.29C862.271 106.29 864.437 105.748 866.843 104.666C867.444 104.425 867.865 104.666 868.106 105.387C868.347 105.989 868.166 106.41 867.565 106.651L848.977 115.493ZM811.983 115.674C808.254 115.674 805.307 114.651 803.141 112.606C800.976 110.561 799.893 107.854 799.893 104.485C799.893 100.515 801.397 97.5675 804.404 95.6426C807.532 93.7177 812.405 91.6725 819.021 89.507L840.496 82.2887L841.037 84.8151L825.698 90.4093C822.691 91.6124 820.525 92.9358 819.202 94.3794C817.878 95.7028 817.217 97.3871 817.217 99.4323C817.217 101.959 817.939 103.944 819.382 105.387C820.826 106.831 822.631 107.553 824.796 107.553C825.879 107.553 827.142 107.372 828.586 107.011C830.15 106.651 831.774 106.049 833.458 105.207L845.188 99.0713L845.549 101.778L829.849 110.26C826.721 111.944 823.593 113.267 820.465 114.23C817.457 115.192 814.63 115.674 811.983 115.674Z" fill="white"/>
<path d="M769.397 116.576C761.095 116.576 754.298 114.831 749.005 111.343C743.711 107.733 739.741 103.162 737.095 97.6277C734.568 92.0936 733.305 86.4994 733.305 80.8451C733.305 74.8298 734.508 69.4762 736.914 64.7843C739.441 60.0924 742.749 56.1824 746.839 53.0545C750.93 49.8062 755.381 47.34 760.193 45.6557C765.126 43.9714 769.998 43.1293 774.81 43.1293C778.299 43.1293 781.728 43.6105 785.096 44.5729C788.465 45.5354 791.232 46.979 793.398 48.9039C795.683 50.8288 796.826 53.1146 796.826 55.7613C796.826 57.6862 796.104 59.4307 794.661 60.9946C793.217 62.4383 791.052 63.1601 788.164 63.1601C785.518 63.1601 783.412 62.4985 781.848 61.1751C780.405 59.7314 779.202 57.7464 778.239 55.22C777.277 52.5732 776.134 50.5281 774.81 49.0844C773.487 47.6407 771.261 46.9189 768.133 46.9189C762.359 46.9189 757.847 49.5656 754.599 54.8591C751.351 60.0322 749.727 66.7693 749.727 75.0704C749.727 81.206 750.629 86.8002 752.433 91.853C754.358 96.9058 757.426 100.996 761.637 104.124C765.848 107.132 771.442 108.636 778.42 108.636C781.908 108.636 784.976 108.215 787.623 107.372C790.39 106.53 793.217 105.207 796.104 103.402C796.345 103.162 796.646 103.282 797.007 103.763C797.488 104.244 797.608 104.605 797.368 104.846C793.157 108.696 788.826 111.643 784.375 113.688C780.044 115.613 775.051 116.576 769.397 116.576Z" fill="white"/>
<path d="M698.183 114.411C697.822 114.411 697.642 114.05 697.642 113.328C697.642 112.606 697.822 112.245 698.183 112.245C702.274 112.245 704.981 111.403 706.304 109.719C707.748 108.034 708.469 104.726 708.469 99.7935V66.9501C708.469 62.8597 708.048 59.9122 707.206 58.1076C706.364 56.1827 704.92 55.2203 702.875 55.2203C701.913 55.2203 700.83 55.4008 699.627 55.7617C698.424 56.1226 697.101 56.664 695.657 57.3858C695.176 57.5061 694.755 57.2053 694.394 56.4835C694.153 55.7617 694.213 55.3406 694.574 55.2203L720.56 43.1296C720.801 43.0093 720.981 42.9491 721.101 42.9491C721.583 42.9491 722.064 43.2499 722.545 43.8514C723.147 44.3327 723.447 44.7537 723.447 45.1146C723.447 46.438 723.387 48.8441 723.267 52.333C723.147 55.8218 723.087 60.6341 723.087 66.7696V99.7935C723.087 104.726 723.748 108.034 725.072 109.719C726.515 111.403 729.282 112.245 733.373 112.245C733.734 112.245 733.914 112.606 733.914 113.328C733.914 114.05 733.734 114.411 733.373 114.411C730.966 114.411 728.26 114.35 725.252 114.23C722.244 114.11 719.056 114.05 715.688 114.05C712.439 114.05 709.251 114.11 706.123 114.23C703.116 114.35 700.469 114.411 698.183 114.411ZM714.785 24.001C711.657 24.001 709.191 23.1589 707.387 21.4746C705.702 19.7903 704.86 17.3842 704.86 14.2563C704.86 11.3689 705.702 9.08313 707.387 7.39885C709.191 5.71458 711.657 4.87244 714.785 4.87244C717.793 4.87244 720.079 5.71458 721.643 7.39885C723.327 9.08313 724.169 11.3689 724.169 14.2563C724.169 20.7528 721.041 24.001 714.785 24.001Z" fill="white"/>
<path d="M673.656 116.576C670.769 116.576 667.882 116.095 664.994 115.132C662.227 114.17 659.881 112.546 657.957 110.26C656.152 107.974 655.25 104.726 655.25 100.515V59.7316C655.25 57.0849 654.949 55.0397 654.347 53.596C653.866 52.1523 652.964 51.1899 651.64 50.7087C650.317 50.1071 648.452 49.8064 646.046 49.8064C645.565 49.8064 645.324 49.3251 645.324 48.3627C645.324 47.4002 645.565 46.919 646.046 46.919C651.701 46.6784 656.272 45.3551 659.761 42.9489C663.37 40.4225 665.897 36.8735 667.34 32.3019C667.461 31.8207 667.942 31.5801 668.784 31.5801C669.626 31.5801 670.047 31.8207 670.047 32.3019V94.56C670.047 99.4925 671.25 103.042 673.656 105.207C676.183 107.373 679.431 108.455 683.401 108.455C686.288 108.455 688.935 107.914 691.341 106.831C693.868 105.628 695.973 104.365 697.657 103.042C698.018 102.801 698.439 102.981 698.921 103.583C699.402 104.064 699.402 104.485 698.921 104.846C694.469 108.937 690.259 111.944 686.288 113.869C682.439 115.674 678.228 116.576 673.656 116.576ZM693.326 53.7764C688.514 52.6937 683.822 51.9719 679.251 51.6109C674.799 51.1297 669.987 50.8891 664.814 50.8891V46.5581C669.746 46.5581 674.499 46.3777 679.07 46.0167C683.762 45.6558 688.755 45.2347 694.048 44.7535C694.289 44.7535 694.529 45.1746 694.77 46.0167C695.131 46.8589 695.311 47.8815 695.311 49.0845C695.311 50.1673 695.071 51.25 694.59 52.3328C694.229 53.4155 693.808 53.8968 693.326 53.7764Z" fill="white"/>
<path d="M632.526 115.493C632.045 115.734 631.504 115.854 630.902 115.854C628.977 115.854 627.052 114.47 625.127 111.703C623.202 108.936 622.24 104.906 622.24 99.6127V68.3934C622.24 63.3406 621.819 59.2502 620.977 56.1223C620.255 52.9943 619.172 50.7085 617.729 49.2648C616.285 47.8212 614.42 47.0993 612.134 47.0993C609.969 47.0993 608.044 47.7009 606.36 48.9039C604.796 49.9867 603.532 51.5507 602.57 53.5958C601.728 55.641 601.187 58.2276 600.946 61.3556C600.705 64.2429 599.803 66.4685 598.239 68.0325C596.795 69.5965 594.63 70.3785 591.743 70.3785C589.096 70.3785 587.111 69.7769 585.787 68.5739C584.584 67.3708 583.983 65.7467 583.983 63.7015C583.983 61.1751 585.186 58.7088 587.592 56.3027C589.998 53.8966 593.006 51.7311 596.615 49.8062C600.224 47.761 604.014 46.1369 607.984 44.9339C611.954 43.7308 615.563 43.1293 618.811 43.1293C623.864 43.1293 628.135 44.7534 631.624 48.0016C635.113 51.1296 636.857 56.1223 636.857 62.9797V94.9208C636.857 98.6503 637.459 101.477 638.662 103.402C639.865 105.327 641.609 106.29 643.895 106.29C645.82 106.29 647.985 105.748 650.391 104.666C650.993 104.425 651.414 104.666 651.655 105.387C651.895 105.989 651.715 106.41 651.113 106.651L632.526 115.493ZM595.532 115.674C591.803 115.674 588.855 114.651 586.69 112.606C584.524 110.561 583.441 107.854 583.441 104.485C583.441 100.515 584.945 97.5675 587.953 95.6426C591.081 93.7177 595.953 91.6725 602.57 89.507L624.045 82.2887L624.586 84.8151L609.247 90.4093C606.239 91.6124 604.074 92.9358 602.75 94.3794C601.427 95.7028 600.765 97.3871 600.765 99.4323C600.765 101.959 601.487 103.944 602.931 105.387C604.375 106.831 606.179 107.553 608.345 107.553C609.427 107.553 610.691 107.372 612.134 107.011C613.698 106.651 615.322 106.049 617.007 105.207L628.736 99.0713L629.097 101.778L613.398 110.26C610.27 111.944 607.142 113.267 604.014 114.23C601.006 115.192 598.179 115.674 595.532 115.674Z" fill="white"/>
<path d="M547.628 114.411C547.267 114.411 547.086 114.05 547.086 113.328C547.086 112.606 547.267 112.245 547.628 112.245C551.598 112.245 554.305 111.403 555.748 109.719C557.192 108.034 557.914 104.726 557.914 99.7934V72.9051C557.914 59.6715 553.162 53.0547 543.657 53.0547C539.687 53.0547 535.838 54.1374 532.108 56.3029C528.379 58.4684 525.251 61.4159 522.724 65.1454L521.822 62.9799C526.273 56.4834 531.025 51.4907 536.078 48.0018C541.251 44.513 546.725 42.7686 552.5 42.7686C558.756 42.7686 563.628 44.5731 567.117 48.1823C570.606 51.7915 572.35 57.3857 572.35 64.9649V99.7934C572.35 104.726 573.012 108.034 574.335 109.719C575.779 111.403 578.546 112.245 582.637 112.245C583.118 112.245 583.358 112.606 583.358 113.328C583.358 114.05 583.118 114.411 582.637 114.411C580.351 114.411 577.704 114.35 574.696 114.23C571.689 114.11 568.501 114.05 565.132 114.05C561.764 114.05 558.575 114.11 555.568 114.23C552.56 114.35 549.913 114.411 547.628 114.411ZM500.528 114.411C500.167 114.411 499.987 114.05 499.987 113.328C499.987 112.606 500.167 112.245 500.528 112.245C504.618 112.245 507.325 111.403 508.649 109.719C510.092 108.034 510.814 104.726 510.814 99.7934V72.9051C510.814 59.6715 506.062 53.0547 496.558 53.0547C492.708 53.0547 488.858 54.1374 485.009 56.3029C481.279 58.4684 478.151 61.4159 475.625 65.1454L474.722 62.9799C479.174 56.4834 483.926 51.4907 488.979 48.0018C494.152 44.513 499.626 42.7686 505.4 42.7686C511.777 42.7686 516.649 44.513 520.017 48.0018C523.506 51.4907 525.251 56.6638 525.251 63.5213V99.7934C525.251 104.726 525.973 108.034 527.416 109.719C528.86 111.403 531.627 112.245 535.717 112.245C536.078 112.245 536.259 112.606 536.259 113.328C536.259 114.05 536.078 114.411 535.717 114.411C533.311 114.411 530.604 114.35 527.597 114.23C524.589 114.11 521.401 114.05 518.032 114.05C514.784 114.05 511.596 114.11 508.468 114.23C505.461 114.35 502.814 114.411 500.528 114.411ZM454.15 114.411C453.789 114.411 453.609 114.05 453.609 113.328C453.609 112.606 453.789 112.245 454.15 112.245C458.241 112.245 460.947 111.403 462.271 109.719C463.594 108.034 464.256 104.726 464.256 99.7934V65.3258C464.256 61.4761 463.835 58.6489 462.993 56.8443C462.15 55.0397 460.647 54.1374 458.481 54.1374C457.398 54.1374 456.075 54.378 454.511 54.8593C452.947 55.3405 451.263 56.0022 449.458 56.8443C448.977 56.9646 448.556 56.724 448.195 56.1225C447.954 55.4006 448.015 54.9796 448.376 54.8593L472.016 43.3099C472.617 43.0693 473.038 42.949 473.279 42.949C474.482 42.949 475.685 44.3325 476.888 47.0996C478.211 49.8666 478.873 53.8968 478.873 59.1903V99.7934C478.873 104.726 479.535 108.034 480.858 109.719C482.302 111.403 485.069 112.245 489.159 112.245C489.52 112.245 489.7 112.606 489.7 113.328C489.7 114.05 489.52 114.411 489.159 114.411C486.873 114.411 484.227 114.35 481.219 114.23C478.211 114.11 475.023 114.05 471.655 114.05C468.406 114.05 465.218 114.11 462.09 114.23C459.083 114.35 456.436 114.411 454.15 114.411Z" fill="white"/>
<path d="M424.544 116.576C416.844 116.576 410.348 114.952 405.054 111.703C399.761 108.455 395.731 104.184 392.964 98.8909C390.197 93.4771 388.813 87.7626 388.813 81.7473C388.813 74.6493 390.557 68.213 394.046 62.4383C397.656 56.5433 402.468 51.8514 408.483 48.3625C414.619 44.8737 421.536 43.1293 429.236 43.1293C436.334 43.1293 441.808 44.7534 445.657 48.0016C449.507 51.1296 451.432 55.4606 451.432 60.9946C451.432 62.318 451.312 63.4609 451.071 64.4233C450.831 65.3858 450.289 65.867 449.447 65.867H434.469C434.83 60.0923 434.048 55.4606 432.123 51.9717C430.198 48.4829 427.07 46.7384 422.739 46.7384C417.325 46.7384 412.994 49.2648 409.746 54.3177C406.498 59.2502 404.874 65.9272 404.874 74.3486C404.874 81.206 405.957 87.2213 408.122 92.3944C410.408 97.4472 413.596 101.417 417.686 104.305C421.897 107.192 426.89 108.636 432.664 108.636C435.672 108.636 438.8 108.215 442.048 107.372C445.297 106.41 448.304 105.026 451.071 103.222C451.312 102.981 451.613 103.102 451.973 103.583C452.455 104.064 452.575 104.485 452.334 104.846C448.003 109.057 443.552 112.064 438.98 113.869C434.409 115.674 429.597 116.576 424.544 116.576ZM399.641 66.2279L399.46 63.1601L439.522 62.2578V65.867L399.641 66.2279Z" fill="white"/>
<path d="M366.271 116.576C363.384 116.576 360.496 116.095 357.609 115.132C354.842 114.17 352.496 112.546 350.571 110.26C348.767 107.974 347.864 104.726 347.864 100.515V59.7316C347.864 57.0849 347.563 55.0397 346.962 53.596C346.481 52.1523 345.578 51.1899 344.255 50.7087C342.932 50.1071 341.067 49.8064 338.661 49.8064C338.18 49.8064 337.939 49.3251 337.939 48.3627C337.939 47.4002 338.18 46.919 338.661 46.919C344.315 46.6784 348.887 45.3551 352.376 42.9489C355.985 40.4225 358.511 36.8735 359.955 32.3019C360.075 31.8207 360.556 31.5801 361.399 31.5801C362.241 31.5801 362.662 31.8207 362.662 32.3019V94.56C362.662 99.4925 363.865 103.042 366.271 105.207C368.797 107.373 372.046 108.455 376.016 108.455C378.903 108.455 381.55 107.914 383.956 106.831C386.482 105.628 388.588 104.365 390.272 103.042C390.633 102.801 391.054 102.981 391.535 103.583C392.016 104.064 392.016 104.485 391.535 104.846C387.084 108.937 382.873 111.944 378.903 113.869C375.053 115.674 370.843 116.576 366.271 116.576ZM385.941 53.7764C381.129 52.6937 376.437 51.9719 371.865 51.6109C367.414 51.1297 362.602 50.8891 357.429 50.8891V46.5581C362.361 46.5581 367.113 46.3777 371.685 46.0167C376.377 45.6558 381.369 45.2347 386.663 44.7535C386.903 44.7535 387.144 45.1746 387.385 46.0167C387.746 46.8589 387.926 47.8815 387.926 49.0845C387.926 50.1673 387.685 51.25 387.204 52.3328C386.843 53.4155 386.422 53.8968 385.941 53.7764Z" fill="white"/>
<path d="M293.673 115.493C293.192 115.734 292.651 115.854 292.049 115.854C290.124 115.854 288.199 114.47 286.275 111.703C284.35 108.936 283.387 104.906 283.387 99.6127V68.3934C283.387 63.3406 282.966 59.2502 282.124 56.1223C281.402 52.9943 280.319 50.7085 278.876 49.2648C277.432 47.8212 275.567 47.0993 273.282 47.0993C271.116 47.0993 269.191 47.7009 267.507 48.9039C265.943 49.9867 264.68 51.5507 263.717 53.5958C262.875 55.641 262.334 58.2276 262.093 61.3556C261.853 64.2429 260.95 66.4685 259.386 68.0325C257.943 69.5965 255.777 70.3785 252.89 70.3785C250.243 70.3785 248.258 69.7769 246.935 68.5739C245.732 67.3708 245.13 65.7467 245.13 63.7015C245.13 61.1751 246.333 58.7088 248.739 56.3027C251.145 53.8966 254.153 51.7311 257.762 49.8062C261.371 47.761 265.161 46.1369 269.131 44.9339C273.101 43.7308 276.71 43.1293 279.959 43.1293C285.011 43.1293 289.282 44.7534 292.771 48.0016C296.26 51.1296 298.004 56.1223 298.004 62.9797V94.9208C298.004 98.6503 298.606 101.477 299.809 103.402C301.012 105.327 302.756 106.29 305.042 106.29C306.967 106.29 309.133 105.748 311.539 104.666C312.14 104.425 312.561 104.666 312.802 105.387C313.043 105.989 312.862 106.41 312.261 106.651L293.673 115.493ZM256.679 115.674C252.95 115.674 250.002 114.651 247.837 112.606C245.671 110.561 244.589 107.854 244.589 104.485C244.589 100.515 246.093 97.5675 249.1 95.6426C252.228 93.7177 257.1 91.6725 263.717 89.507L285.192 82.2887L285.733 84.8151L270.394 90.4093C267.387 91.6124 265.221 92.9358 263.898 94.3794C262.574 95.7028 261.913 97.3871 261.913 99.4323C261.913 101.959 262.635 103.944 264.078 105.387C265.522 106.831 267.326 107.553 269.492 107.553C270.575 107.553 271.838 107.372 273.282 107.011C274.846 106.651 276.47 106.049 278.154 105.207L289.884 99.0713L290.245 101.778L274.545 110.26C271.417 111.944 268.289 113.267 265.161 114.23C262.153 115.192 259.326 115.674 256.679 115.674Z" fill="white"/>
<path d="M214.789 116.576C207.09 116.576 200.593 114.952 195.3 111.703C190.006 108.455 185.976 104.184 183.209 98.8909C180.442 93.4771 179.058 87.7626 179.058 81.7473C179.058 74.6493 180.803 68.213 184.292 62.4383C187.901 56.5433 192.713 51.8514 198.728 48.3625C204.864 44.8737 211.782 43.1293 219.481 43.1293C226.579 43.1293 232.053 44.7534 235.903 48.0016C239.753 51.1296 241.677 55.4606 241.677 60.9946C241.677 62.318 241.557 63.4609 241.317 64.4233C241.076 65.3858 240.535 65.867 239.692 65.867H224.714C225.075 60.0923 224.293 55.4606 222.368 51.9717C220.444 48.4829 217.316 46.7384 212.985 46.7384C207.571 46.7384 203.24 49.2648 199.992 54.3177C196.743 59.2502 195.119 65.9272 195.119 74.3486C195.119 81.206 196.202 87.2213 198.368 92.3944C200.653 97.4472 203.841 101.417 207.932 104.305C212.142 107.192 217.135 108.636 222.91 108.636C225.917 108.636 229.045 108.215 232.294 107.372C235.542 106.41 238.55 105.026 241.317 103.222C241.557 102.981 241.858 103.102 242.219 103.583C242.7 104.064 242.82 104.485 242.58 104.846C238.249 109.057 233.797 112.064 229.226 113.869C224.654 115.674 219.842 116.576 214.789 116.576ZM189.886 66.2279L189.706 63.1601L229.767 62.2578V65.867L189.886 66.2279Z" fill="white"/>
<path d="M146.521 65.5061L145.258 63.3406C149.829 57.9269 153.679 53.7764 156.807 50.889C160.055 47.8814 162.762 45.8362 164.927 44.7534C167.093 43.5504 169.138 42.9489 171.063 42.9489C173.589 42.9489 176.116 43.8511 178.642 45.6557C181.289 47.34 182.612 49.5055 182.612 52.1522C182.612 54.3177 181.951 56.1223 180.627 57.566C179.304 59.0096 177.439 59.7315 175.033 59.7315C172.868 59.7315 171.183 59.1299 169.98 57.9269C168.777 56.7238 167.634 55.5809 166.552 54.4982C165.469 53.4154 163.965 52.8741 162.04 52.8741C161.078 52.8741 160.055 53.1748 158.972 53.7763C157.89 54.2576 156.386 55.4005 154.461 57.2051C152.536 59.0096 149.889 61.7767 146.521 65.5061ZM125.948 114.41C125.588 114.41 125.407 114.049 125.407 113.328C125.407 112.606 125.588 112.245 125.948 112.245C130.039 112.245 132.746 111.403 134.069 109.718C135.392 108.034 136.054 104.726 136.054 99.7932V65.3257C136.054 61.4759 135.633 58.6487 134.791 56.8441C133.949 55.0396 132.445 54.1373 130.279 54.1373C129.197 54.1373 127.873 54.3779 126.309 54.8591C124.745 55.3403 123.061 56.002 121.257 56.8441C120.775 56.9644 120.354 56.7238 119.993 56.1223C119.753 55.4005 119.813 54.9794 120.174 54.8591L143.814 43.3098C144.415 43.0692 144.836 42.9489 145.077 42.9489C146.28 42.9489 147.483 44.3324 148.686 47.0994C150.01 49.8664 150.671 53.8967 150.671 59.1901V99.7932C150.671 103.041 151.152 105.628 152.115 107.553C153.077 109.358 154.762 110.621 157.168 111.343C159.574 111.944 162.942 112.245 167.273 112.245C167.755 112.245 167.995 112.606 167.995 113.328C167.995 114.049 167.755 114.41 167.273 114.41C164.145 114.41 160.536 114.35 156.446 114.23C152.476 114.11 148.145 114.049 143.453 114.049C140.205 114.049 137.017 114.11 133.889 114.23C130.881 114.35 128.234 114.41 125.948 114.41Z" fill="white"/>
<path d="M40.0617 58.4685L42.7686 53.7766H79.943L81.2062 58.4685H40.0617ZM129.389 112.245C129.87 112.245 130.11 112.606 130.11 113.328C130.11 114.05 129.87 114.411 129.389 114.411C125.779 114.411 122.05 114.29 118.2 114.05C114.471 113.809 110.862 113.689 107.373 113.689C103.403 113.689 99.9137 113.809 96.9061 114.05C94.0188 114.29 90.7705 114.411 87.1614 114.411C86.6801 114.411 86.4395 114.05 86.4395 113.328C86.4395 112.606 86.6801 112.245 87.1614 112.245C92.5751 112.245 95.8233 111.283 96.9061 109.358C97.9888 107.433 97.0866 103.643 94.1992 97.9888L56.4834 21.2941L63.8822 9.20337L28.1515 89.6878C25.0235 97.0264 24.9032 102.621 27.7906 106.47C30.7982 110.32 35.851 112.245 42.9491 112.245C43.5506 112.245 43.8514 112.606 43.8514 113.328C43.8514 114.05 43.5506 114.411 42.9491 114.411C39.3399 114.411 36.0315 114.29 33.0239 114.05C30.0162 113.809 26.2266 113.689 21.655 113.689C17.0834 113.689 13.4141 113.809 10.647 114.05C8.00032 114.29 4.69192 114.411 0.721833 114.411C0.240611 114.411 0 114.05 0 113.328C0 112.606 0.240611 112.245 0.721833 112.245C3.97008 112.245 6.73711 111.583 9.02291 110.26C11.429 108.937 13.775 106.531 16.0608 103.042C18.3466 99.4325 20.873 94.4398 23.64 88.0636L62.4386 0.541368C62.6792 0.180456 63.2206 0 64.0627 0C64.9048 0 65.3861 0.180456 65.5064 0.541368L109.719 89.6878C112.486 95.4624 114.952 100.034 117.117 103.403C119.283 106.651 121.328 108.937 123.253 110.26C125.178 111.583 127.223 112.245 129.389 112.245Z" fill="white"/>
</svg>
